<mxfile host="app.diagrams.net" modified="2021-01-20T06:12:38.544Z" agent="5.0 (Windows NT 10.0; WOW64) AppleWebKit/537.36 (KHTML, like Gecko) Chrome/78.0.3904.108 Safari/537.36" etag="xM8BYR-8AHuX5gc-kMWw" version="14.2.3" type="github">
  <diagram id="nkcNjnHHN7rYcLi6Fnu9" name="第 1 页">
    <mxGraphModel dx="2435" dy="843" grid="0" gridSize="10" guides="1" tooltips="1" connect="1" arrows="1" fold="1" page="0" pageScale="1" pageWidth="827" pageHeight="1169" math="0" shadow="0">
      <root>
        <mxCell id="0" />
        <mxCell id="1" parent="0" />
        <mxCell id="cLwiuci_HsSusy-Sjnxw-3" value="渠道订单" style="swimlane;fontStyle=1;childLayout=stackLayout;horizontal=1;startSize=26;horizontalStack=0;resizeParent=1;resizeParentMax=0;resizeLast=0;collapsible=1;marginBottom=0;rounded=1;sketch=0;swimlaneFillColor=none;fontFamily=Tahoma;fillColor=#ffcc99;strokeColor=#36393d;" parent="1" vertex="1">
          <mxGeometry x="-68" y="34" width="140" height="130" as="geometry" />
        </mxCell>
        <mxCell id="cLwiuci_HsSusy-Sjnxw-4" value="渠道订单id" style="text;align=left;verticalAlign=top;spacingLeft=4;spacingRight=4;overflow=hidden;rotatable=0;points=[[0,0.5],[1,0.5]];portConstraint=eastwest;fontStyle=1;fontFamily=Tahoma;fillColor=#cdeb8b;strokeColor=#36393d;" parent="cLwiuci_HsSusy-Sjnxw-3" vertex="1">
          <mxGeometry y="26" width="140" height="26" as="geometry" />
        </mxCell>
        <mxCell id="cLwiuci_HsSusy-Sjnxw-5" value="订单编号" style="text;align=left;verticalAlign=top;spacingLeft=4;spacingRight=4;overflow=hidden;rotatable=0;points=[[0,0.5],[1,0.5]];portConstraint=eastwest;fontStyle=1;fontFamily=Tahoma;fillColor=#cdeb8b;strokeColor=#36393d;" parent="cLwiuci_HsSusy-Sjnxw-3" vertex="1">
          <mxGeometry y="52" width="140" height="26" as="geometry" />
        </mxCell>
        <mxCell id="cLwiuci_HsSusy-Sjnxw-6" value="渠道id" style="text;align=left;verticalAlign=top;spacingLeft=4;spacingRight=4;overflow=hidden;rotatable=0;points=[[0,0.5],[1,0.5]];portConstraint=eastwest;fontStyle=1;fontFamily=Tahoma;fillColor=#cdeb8b;strokeColor=#36393d;" parent="cLwiuci_HsSusy-Sjnxw-3" vertex="1">
          <mxGeometry y="78" width="140" height="26" as="geometry" />
        </mxCell>
        <mxCell id="cLwiuci_HsSusy-Sjnxw-21" value="创建时间" style="text;align=left;verticalAlign=top;spacingLeft=4;spacingRight=4;overflow=hidden;rotatable=0;points=[[0,0.5],[1,0.5]];portConstraint=eastwest;fontStyle=1;fontFamily=Tahoma;fillColor=#cdeb8b;strokeColor=#36393d;" parent="cLwiuci_HsSusy-Sjnxw-3" vertex="1">
          <mxGeometry y="104" width="140" height="26" as="geometry" />
        </mxCell>
        <mxCell id="cLwiuci_HsSusy-Sjnxw-31" value="渠道订单映射关系" style="swimlane;fontStyle=1;childLayout=stackLayout;horizontal=1;startSize=26;horizontalStack=0;resizeParent=1;resizeParentMax=0;resizeLast=0;collapsible=1;marginBottom=0;rounded=1;fontFamily=Tahoma;fillColor=#ffcc99;strokeColor=#36393d;align=center;labelBackgroundColor=none;labelBorderColor=none;shadow=0;" parent="1" vertex="1">
          <mxGeometry x="133" y="34" width="140" height="130" as="geometry" />
        </mxCell>
        <mxCell id="cLwiuci_HsSusy-Sjnxw-32" value="映射关系id" style="text;align=left;verticalAlign=top;spacingLeft=4;spacingRight=4;overflow=hidden;rotatable=0;points=[[0,0.5],[1,0.5]];portConstraint=eastwest;fontStyle=1;fontFamily=Tahoma;fillColor=#cdeb8b;strokeColor=#36393d;labelBackgroundColor=none;labelBorderColor=none;shadow=0;" parent="cLwiuci_HsSusy-Sjnxw-31" vertex="1">
          <mxGeometry y="26" width="140" height="26" as="geometry" />
        </mxCell>
        <mxCell id="cLwiuci_HsSusy-Sjnxw-33" value="渠道订单id" style="text;align=left;verticalAlign=top;spacingLeft=4;spacingRight=4;overflow=hidden;rotatable=0;points=[[0,0.5],[1,0.5]];portConstraint=eastwest;fontStyle=1;fontFamily=Tahoma;fillColor=#cdeb8b;strokeColor=#36393d;labelBackgroundColor=none;labelBorderColor=none;shadow=0;" parent="cLwiuci_HsSusy-Sjnxw-31" vertex="1">
          <mxGeometry y="52" width="140" height="26" as="geometry" />
        </mxCell>
        <mxCell id="cLwiuci_HsSusy-Sjnxw-34" value="融易算订单id" style="text;align=left;verticalAlign=top;spacingLeft=4;spacingRight=4;overflow=hidden;rotatable=0;points=[[0,0.5],[1,0.5]];portConstraint=eastwest;fontStyle=1;fontFamily=Tahoma;fillColor=#cdeb8b;strokeColor=#36393d;labelBackgroundColor=none;labelBorderColor=none;shadow=0;" parent="cLwiuci_HsSusy-Sjnxw-31" vertex="1">
          <mxGeometry y="78" width="140" height="26" as="geometry" />
        </mxCell>
        <mxCell id="cLwiuci_HsSusy-Sjnxw-36" value="创建时间" style="text;align=left;verticalAlign=top;spacingLeft=4;spacingRight=4;overflow=hidden;rotatable=0;points=[[0,0.5],[1,0.5]];portConstraint=eastwest;fontStyle=1;fontFamily=Tahoma;fillColor=#cdeb8b;strokeColor=#36393d;labelBackgroundColor=none;labelBorderColor=none;shadow=0;" parent="cLwiuci_HsSusy-Sjnxw-31" vertex="1">
          <mxGeometry y="104" width="140" height="26" as="geometry" />
        </mxCell>
        <mxCell id="cLwiuci_HsSusy-Sjnxw-37" value="n:1" style="edgeStyle=orthogonalEdgeStyle;rounded=0;orthogonalLoop=1;jettySize=auto;exitX=0;exitY=0.5;exitDx=0;exitDy=0;fontFamily=Tahoma;fillColor=#cdeb8b;strokeColor=#36393d;fontStyle=0;align=left;labelBackgroundColor=none;labelBorderColor=none;shadow=0;" parent="1" source="cLwiuci_HsSusy-Sjnxw-38" edge="1">
          <mxGeometry relative="1" as="geometry">
            <mxPoint x="276.66666666666697" y="359.3333333333335" as="targetPoint" />
          </mxGeometry>
        </mxCell>
        <mxCell id="cLwiuci_HsSusy-Sjnxw-38" value="融易算订单" style="swimlane;fontStyle=1;childLayout=stackLayout;horizontal=1;startSize=26;horizontalStack=0;resizeParent=1;resizeParentMax=0;resizeLast=0;collapsible=1;marginBottom=0;rounded=1;sketch=0;swimlaneFillColor=none;fontFamily=Tahoma;fillColor=#ffcc99;strokeColor=#36393d;align=center;labelBackgroundColor=none;labelBorderColor=none;shadow=0;" parent="1" vertex="1">
          <mxGeometry x="328" y="34" width="140" height="650" as="geometry" />
        </mxCell>
        <mxCell id="cLwiuci_HsSusy-Sjnxw-39" value="订单id" style="text;align=left;verticalAlign=top;spacingLeft=4;spacingRight=4;overflow=hidden;rotatable=0;points=[[0,0.5],[1,0.5]];portConstraint=eastwest;fontStyle=1;fontFamily=Tahoma;fillColor=#cdeb8b;strokeColor=#36393d;labelBackgroundColor=none;labelBorderColor=none;shadow=0;" parent="cLwiuci_HsSusy-Sjnxw-38" vertex="1">
          <mxGeometry y="26" width="140" height="26" as="geometry" />
        </mxCell>
        <mxCell id="cLwiuci_HsSusy-Sjnxw-40" value="订单编号" style="text;align=left;verticalAlign=top;spacingLeft=4;spacingRight=4;overflow=hidden;rotatable=0;points=[[0,0.5],[1,0.5]];portConstraint=eastwest;fontStyle=1;fontFamily=Tahoma;fillColor=#cdeb8b;strokeColor=#36393d;labelBackgroundColor=none;labelBorderColor=none;shadow=0;" parent="cLwiuci_HsSusy-Sjnxw-38" vertex="1">
          <mxGeometry y="52" width="140" height="26" as="geometry" />
        </mxCell>
        <mxCell id="cLwiuci_HsSusy-Sjnxw-41" value="渠道id" style="text;align=left;verticalAlign=top;spacingLeft=4;spacingRight=4;overflow=hidden;rotatable=0;points=[[0,0.5],[1,0.5]];portConstraint=eastwest;fontStyle=1;fontFamily=Tahoma;fillColor=#f5f5f5;strokeColor=#666666;labelBackgroundColor=none;labelBorderColor=none;shadow=0;gradientColor=#b3b3b3;" parent="cLwiuci_HsSusy-Sjnxw-38" vertex="1">
          <mxGeometry y="78" width="140" height="26" as="geometry" />
        </mxCell>
        <mxCell id="cLwiuci_HsSusy-Sjnxw-42" value="订单类型 默认全款" style="text;align=left;verticalAlign=top;spacingLeft=4;spacingRight=4;overflow=hidden;rotatable=0;points=[[0,0.5],[1,0.5]];portConstraint=eastwest;fontStyle=1;fontFamily=Tahoma;fillColor=#cdeb8b;strokeColor=#36393d;labelBackgroundColor=none;labelBorderColor=none;shadow=0;" parent="cLwiuci_HsSusy-Sjnxw-38" vertex="1">
          <mxGeometry y="104" width="140" height="26" as="geometry" />
        </mxCell>
        <mxCell id="cLwiuci_HsSusy-Sjnxw-43" value="订单状态" style="text;align=left;verticalAlign=top;spacingLeft=4;spacingRight=4;overflow=hidden;rotatable=0;points=[[0,0.5],[1,0.5]];portConstraint=eastwest;fontStyle=1;fontFamily=Tahoma;fillColor=#cdeb8b;strokeColor=#36393d;labelBackgroundColor=none;labelBorderColor=none;shadow=0;" parent="cLwiuci_HsSusy-Sjnxw-38" vertex="1">
          <mxGeometry y="130" width="140" height="26" as="geometry" />
        </mxCell>
        <mxCell id="cLwiuci_HsSusy-Sjnxw-44" value="下单人id" style="text;align=left;verticalAlign=top;spacingLeft=4;spacingRight=4;overflow=hidden;rotatable=0;points=[[0,0.5],[1,0.5]];portConstraint=eastwest;fontStyle=1;fontFamily=Tahoma;fillColor=#cdeb8b;strokeColor=#36393d;labelBackgroundColor=none;labelBorderColor=none;shadow=0;" parent="cLwiuci_HsSusy-Sjnxw-38" vertex="1">
          <mxGeometry y="156" width="140" height="26" as="geometry" />
        </mxCell>
        <mxCell id="cLwiuci_HsSusy-Sjnxw-45" value="下单人名称" style="text;align=left;verticalAlign=top;spacingLeft=4;spacingRight=4;overflow=hidden;rotatable=0;points=[[0,0.5],[1,0.5]];portConstraint=eastwest;fontStyle=1;fontFamily=Tahoma;fillColor=#cdeb8b;strokeColor=#36393d;labelBackgroundColor=none;labelBorderColor=none;shadow=0;" parent="cLwiuci_HsSusy-Sjnxw-38" vertex="1">
          <mxGeometry y="182" width="140" height="26" as="geometry" />
        </mxCell>
        <mxCell id="cLwiuci_HsSusy-Sjnxw-46" value="下单手机号" style="text;align=left;verticalAlign=top;spacingLeft=4;spacingRight=4;overflow=hidden;rotatable=0;points=[[0,0.5],[1,0.5]];portConstraint=eastwest;fontStyle=1;fontFamily=Tahoma;fillColor=#cdeb8b;strokeColor=#36393d;labelBackgroundColor=none;labelBorderColor=none;shadow=0;" parent="cLwiuci_HsSusy-Sjnxw-38" vertex="1">
          <mxGeometry y="208" width="140" height="26" as="geometry" />
        </mxCell>
        <mxCell id="cLwiuci_HsSusy-Sjnxw-47" value="省编码" style="text;align=left;verticalAlign=top;spacingLeft=4;spacingRight=4;overflow=hidden;rotatable=0;points=[[0,0.5],[1,0.5]];portConstraint=eastwest;fontStyle=1;fontFamily=Tahoma;fillColor=#cdeb8b;strokeColor=#36393d;labelBackgroundColor=none;labelBorderColor=none;shadow=0;" parent="cLwiuci_HsSusy-Sjnxw-38" vertex="1">
          <mxGeometry y="234" width="140" height="26" as="geometry" />
        </mxCell>
        <mxCell id="cLwiuci_HsSusy-Sjnxw-48" value="市编码" style="text;align=left;verticalAlign=top;spacingLeft=4;spacingRight=4;overflow=hidden;rotatable=0;points=[[0,0.5],[1,0.5]];portConstraint=eastwest;fontStyle=1;fontFamily=Tahoma;fillColor=#cdeb8b;strokeColor=#36393d;labelBackgroundColor=none;labelBorderColor=none;shadow=0;" parent="cLwiuci_HsSusy-Sjnxw-38" vertex="1">
          <mxGeometry y="260" width="140" height="26" as="geometry" />
        </mxCell>
        <mxCell id="cLwiuci_HsSusy-Sjnxw-49" value="区域编码" style="text;align=left;verticalAlign=top;spacingLeft=4;spacingRight=4;overflow=hidden;rotatable=0;points=[[0,0.5],[1,0.5]];portConstraint=eastwest;fontStyle=1;fontFamily=Tahoma;fillColor=#cdeb8b;strokeColor=#36393d;labelBackgroundColor=none;labelBorderColor=none;shadow=0;" parent="cLwiuci_HsSusy-Sjnxw-38" vertex="1">
          <mxGeometry y="286" width="140" height="26" as="geometry" />
        </mxCell>
        <mxCell id="cLwiuci_HsSusy-Sjnxw-50" value="订单总金额" style="text;align=left;verticalAlign=top;spacingLeft=4;spacingRight=4;overflow=hidden;rotatable=0;points=[[0,0.5],[1,0.5]];portConstraint=eastwest;fontStyle=1;fontFamily=Tahoma;fillColor=#cdeb8b;strokeColor=#36393d;labelBackgroundColor=none;labelBorderColor=none;shadow=0;" parent="cLwiuci_HsSusy-Sjnxw-38" vertex="1">
          <mxGeometry y="312" width="140" height="26" as="geometry" />
        </mxCell>
        <mxCell id="cLwiuci_HsSusy-Sjnxw-51" value="结算金额" style="text;align=left;verticalAlign=top;spacingLeft=4;spacingRight=4;overflow=hidden;rotatable=0;points=[[0,0.5],[1,0.5]];portConstraint=eastwest;fontStyle=1;fontFamily=Tahoma;fillColor=#cdeb8b;strokeColor=#36393d;labelBackgroundColor=none;labelBorderColor=none;shadow=0;" parent="cLwiuci_HsSusy-Sjnxw-38" vertex="1">
          <mxGeometry y="338" width="140" height="26" as="geometry" />
        </mxCell>
        <mxCell id="cLwiuci_HsSusy-Sjnxw-52" value="应付金额" style="text;align=left;verticalAlign=top;spacingLeft=4;spacingRight=4;overflow=hidden;rotatable=0;points=[[0,0.5],[1,0.5]];portConstraint=eastwest;fontStyle=1;fontFamily=Tahoma;fillColor=#cdeb8b;strokeColor=#36393d;labelBackgroundColor=none;labelBorderColor=none;shadow=0;" parent="cLwiuci_HsSusy-Sjnxw-38" vertex="1">
          <mxGeometry y="364" width="140" height="26" as="geometry" />
        </mxCell>
        <mxCell id="cLwiuci_HsSusy-Sjnxw-53" value="实付金额" style="text;align=left;verticalAlign=top;spacingLeft=4;spacingRight=4;overflow=hidden;rotatable=0;points=[[0,0.5],[1,0.5]];portConstraint=eastwest;fontStyle=1;fontFamily=Tahoma;fillColor=#cdeb8b;strokeColor=#36393d;labelBackgroundColor=none;labelBorderColor=none;shadow=0;" parent="cLwiuci_HsSusy-Sjnxw-38" vertex="1">
          <mxGeometry y="390" width="140" height="26" as="geometry" />
        </mxCell>
        <mxCell id="cLwiuci_HsSusy-Sjnxw-54" value="跟进状态" style="text;align=left;verticalAlign=top;spacingLeft=4;spacingRight=4;overflow=hidden;rotatable=0;points=[[0,0.5],[1,0.5]];portConstraint=eastwest;fontStyle=1;fontFamily=Tahoma;fillColor=#cdeb8b;strokeColor=#36393d;labelBackgroundColor=none;labelBorderColor=none;shadow=0;" parent="cLwiuci_HsSusy-Sjnxw-38" vertex="1">
          <mxGeometry y="416" width="140" height="26" as="geometry" />
        </mxCell>
        <mxCell id="cLwiuci_HsSusy-Sjnxw-55" value="备注" style="text;align=left;verticalAlign=top;spacingLeft=4;spacingRight=4;overflow=hidden;rotatable=0;points=[[0,0.5],[1,0.5]];portConstraint=eastwest;fontStyle=1;fontFamily=Tahoma;fillColor=#cdeb8b;strokeColor=#36393d;labelBackgroundColor=none;labelBorderColor=none;shadow=0;" parent="cLwiuci_HsSusy-Sjnxw-38" vertex="1">
          <mxGeometry y="442" width="140" height="26" as="geometry" />
        </mxCell>
        <mxCell id="cLwiuci_HsSusy-Sjnxw-56" value="归属人uid" style="text;align=left;verticalAlign=top;spacingLeft=4;spacingRight=4;overflow=hidden;rotatable=0;points=[[0,0.5],[1,0.5]];portConstraint=eastwest;fontStyle=1;fontFamily=Tahoma;fillColor=#cdeb8b;strokeColor=#36393d;labelBackgroundColor=none;labelBorderColor=none;shadow=0;" parent="cLwiuci_HsSusy-Sjnxw-38" vertex="1">
          <mxGeometry y="468" width="140" height="26" as="geometry" />
        </mxCell>
        <mxCell id="cLwiuci_HsSusy-Sjnxw-57" value="归属人姓名" style="text;align=left;verticalAlign=top;spacingLeft=4;spacingRight=4;overflow=hidden;rotatable=0;points=[[0,0.5],[1,0.5]];portConstraint=eastwest;fontStyle=1;fontFamily=Tahoma;fillColor=#cdeb8b;strokeColor=#36393d;labelBackgroundColor=none;labelBorderColor=none;shadow=0;" parent="cLwiuci_HsSusy-Sjnxw-38" vertex="1">
          <mxGeometry y="494" width="140" height="26" as="geometry" />
        </mxCell>
        <mxCell id="cLwiuci_HsSusy-Sjnxw-58" value="归属部门id" style="text;align=left;verticalAlign=top;spacingLeft=4;spacingRight=4;overflow=hidden;rotatable=0;points=[[0,0.5],[1,0.5]];portConstraint=eastwest;fontStyle=1;fontFamily=Tahoma;fillColor=#cdeb8b;strokeColor=#36393d;labelBackgroundColor=none;labelBorderColor=none;shadow=0;" parent="cLwiuci_HsSusy-Sjnxw-38" vertex="1">
          <mxGeometry y="520" width="140" height="26" as="geometry" />
        </mxCell>
        <mxCell id="cLwiuci_HsSusy-Sjnxw-59" value="归属部门名称" style="text;align=left;verticalAlign=top;spacingLeft=4;spacingRight=4;overflow=hidden;rotatable=0;points=[[0,0.5],[1,0.5]];portConstraint=eastwest;fontStyle=1;fontFamily=Tahoma;fillColor=#cdeb8b;strokeColor=#36393d;labelBackgroundColor=none;labelBorderColor=none;shadow=0;" parent="cLwiuci_HsSusy-Sjnxw-38" vertex="1">
          <mxGeometry y="546" width="140" height="26" as="geometry" />
        </mxCell>
        <mxCell id="cLwiuci_HsSusy-Sjnxw-60" value="退款金额" style="text;align=left;verticalAlign=top;spacingLeft=4;spacingRight=4;overflow=hidden;rotatable=0;points=[[0,0.5],[1,0.5]];portConstraint=eastwest;fontStyle=1;fontFamily=Tahoma;fillColor=#cdeb8b;strokeColor=#36393d;labelBackgroundColor=none;labelBorderColor=none;shadow=0;" parent="cLwiuci_HsSusy-Sjnxw-38" vertex="1">
          <mxGeometry y="572" width="140" height="26" as="geometry" />
        </mxCell>
        <mxCell id="cLwiuci_HsSusy-Sjnxw-61" value="创建时间" style="text;align=left;verticalAlign=top;spacingLeft=4;spacingRight=4;overflow=hidden;rotatable=0;points=[[0,0.5],[1,0.5]];portConstraint=eastwest;fontStyle=1;fontFamily=Tahoma;fillColor=#cdeb8b;strokeColor=#36393d;labelBackgroundColor=none;labelBorderColor=none;shadow=0;" parent="cLwiuci_HsSusy-Sjnxw-38" vertex="1">
          <mxGeometry y="598" width="140" height="26" as="geometry" />
        </mxCell>
        <mxCell id="cLwiuci_HsSusy-Sjnxw-62" value="数据标识" style="text;align=left;verticalAlign=top;spacingLeft=4;spacingRight=4;overflow=hidden;rotatable=0;points=[[0,0.5],[1,0.5]];portConstraint=eastwest;fontStyle=1;fontFamily=Tahoma;fillColor=#cdeb8b;strokeColor=#36393d;labelBackgroundColor=none;labelBorderColor=none;shadow=0;" parent="cLwiuci_HsSusy-Sjnxw-38" vertex="1">
          <mxGeometry y="624" width="140" height="26" as="geometry" />
        </mxCell>
        <mxCell id="cLwiuci_HsSusy-Sjnxw-63" value="n:1" style="edgeStyle=orthogonalEdgeStyle;rounded=0;orthogonalLoop=1;jettySize=auto;entryX=0;entryY=0.5;entryDx=0;entryDy=0;fontFamily=Tahoma;fillColor=#cdeb8b;strokeColor=#36393d;fontStyle=0;align=left;labelBackgroundColor=none;labelBorderColor=none;shadow=0;" parent="1" source="cLwiuci_HsSusy-Sjnxw-33" target="cLwiuci_HsSusy-Sjnxw-40" edge="1">
          <mxGeometry relative="1" as="geometry" />
        </mxCell>
        <mxCell id="cLwiuci_HsSusy-Sjnxw-64" value="融易算子订单" style="swimlane;fontStyle=1;childLayout=stackLayout;horizontal=1;startSize=26;horizontalStack=0;resizeParent=1;resizeParentMax=0;resizeLast=0;collapsible=1;marginBottom=0;rounded=1;fontFamily=Tahoma;fillColor=#ffcc99;strokeColor=#36393d;align=center;labelBackgroundColor=none;labelBorderColor=none;shadow=0;" parent="1" vertex="1">
          <mxGeometry x="133" y="217" width="140" height="598" as="geometry" />
        </mxCell>
        <mxCell id="cLwiuci_HsSusy-Sjnxw-65" value="子订单id" style="text;align=left;verticalAlign=top;spacingLeft=4;spacingRight=4;overflow=hidden;rotatable=0;points=[[0,0.5],[1,0.5]];portConstraint=eastwest;fontStyle=1;fontFamily=Tahoma;fillColor=#cdeb8b;strokeColor=#36393d;labelBackgroundColor=none;labelBorderColor=none;shadow=0;" parent="cLwiuci_HsSusy-Sjnxw-64" vertex="1">
          <mxGeometry y="26" width="140" height="26" as="geometry" />
        </mxCell>
        <mxCell id="cLwiuci_HsSusy-Sjnxw-66" value="子订单编号" style="text;align=left;verticalAlign=top;spacingLeft=4;spacingRight=4;overflow=hidden;rotatable=0;points=[[0,0.5],[1,0.5]];portConstraint=eastwest;fontStyle=1;fontFamily=Tahoma;fillColor=#cdeb8b;strokeColor=#36393d;labelBackgroundColor=none;labelBorderColor=none;shadow=0;" parent="cLwiuci_HsSusy-Sjnxw-64" vertex="1">
          <mxGeometry y="52" width="140" height="26" as="geometry" />
        </mxCell>
        <mxCell id="cLwiuci_HsSusy-Sjnxw-67" value="融易算订单id" style="text;align=left;verticalAlign=top;spacingLeft=4;spacingRight=4;overflow=hidden;rotatable=0;points=[[0,0.5],[1,0.5]];portConstraint=eastwest;fontStyle=1;fontFamily=Tahoma;fillColor=#cdeb8b;strokeColor=#36393d;labelBackgroundColor=none;labelBorderColor=none;shadow=0;" parent="cLwiuci_HsSusy-Sjnxw-64" vertex="1">
          <mxGeometry y="78" width="140" height="26" as="geometry" />
        </mxCell>
        <mxCell id="cLwiuci_HsSusy-Sjnxw-68" value="子订单状态" style="text;align=left;verticalAlign=top;spacingLeft=4;spacingRight=4;overflow=hidden;rotatable=0;points=[[0,0.5],[1,0.5]];portConstraint=eastwest;fontStyle=1;fontFamily=Tahoma;fillColor=#cdeb8b;strokeColor=#36393d;labelBackgroundColor=none;labelBorderColor=none;shadow=0;" parent="cLwiuci_HsSusy-Sjnxw-64" vertex="1">
          <mxGeometry y="104" width="140" height="26" as="geometry" />
        </mxCell>
        <mxCell id="cLwiuci_HsSusy-Sjnxw-69" value="子订单金额" style="text;align=left;verticalAlign=top;spacingLeft=4;spacingRight=4;overflow=hidden;rotatable=0;points=[[0,0.5],[1,0.5]];portConstraint=eastwest;fontStyle=1;fontFamily=Tahoma;fillColor=#cdeb8b;strokeColor=#36393d;labelBackgroundColor=none;labelBorderColor=none;shadow=0;" parent="cLwiuci_HsSusy-Sjnxw-64" vertex="1">
          <mxGeometry y="130" width="140" height="26" as="geometry" />
        </mxCell>
        <mxCell id="cLwiuci_HsSusy-Sjnxw-70" value="应付金额" style="text;align=left;verticalAlign=top;spacingLeft=4;spacingRight=4;overflow=hidden;rotatable=0;points=[[0,0.5],[1,0.5]];portConstraint=eastwest;fontStyle=1;fontFamily=Tahoma;fillColor=#cdeb8b;strokeColor=#36393d;labelBackgroundColor=none;labelBorderColor=none;shadow=0;" parent="cLwiuci_HsSusy-Sjnxw-64" vertex="1">
          <mxGeometry y="156" width="140" height="26" as="geometry" />
        </mxCell>
        <mxCell id="cLwiuci_HsSusy-Sjnxw-71" value="实付金额" style="text;align=left;verticalAlign=top;spacingLeft=4;spacingRight=4;overflow=hidden;rotatable=0;points=[[0,0.5],[1,0.5]];portConstraint=eastwest;fontStyle=1;fontFamily=Tahoma;fillColor=#cdeb8b;strokeColor=#36393d;labelBackgroundColor=none;labelBorderColor=none;shadow=0;" parent="cLwiuci_HsSusy-Sjnxw-64" vertex="1">
          <mxGeometry y="182" width="140" height="26" as="geometry" />
        </mxCell>
        <mxCell id="cLwiuci_HsSusy-Sjnxw-72" value="结算金额" style="text;align=left;verticalAlign=top;spacingLeft=4;spacingRight=4;overflow=hidden;rotatable=0;points=[[0,0.5],[1,0.5]];portConstraint=eastwest;fontStyle=1;fontFamily=Tahoma;fillColor=#cdeb8b;strokeColor=#36393d;labelBackgroundColor=none;labelBorderColor=none;shadow=0;" parent="cLwiuci_HsSusy-Sjnxw-64" vertex="1">
          <mxGeometry y="208" width="140" height="26" as="geometry" />
        </mxCell>
        <mxCell id="cLwiuci_HsSusy-Sjnxw-73" value="商品id" style="text;align=left;verticalAlign=top;spacingLeft=4;spacingRight=4;overflow=hidden;rotatable=0;points=[[0,0.5],[1,0.5]];portConstraint=eastwest;fontStyle=1;fontFamily=Tahoma;fillColor=#cdeb8b;strokeColor=#36393d;labelBackgroundColor=none;labelBorderColor=none;shadow=0;" parent="cLwiuci_HsSusy-Sjnxw-64" vertex="1">
          <mxGeometry y="234" width="140" height="26" as="geometry" />
        </mxCell>
        <mxCell id="cLwiuci_HsSusy-Sjnxw-74" value="商品名称" style="text;align=left;verticalAlign=top;spacingLeft=4;spacingRight=4;overflow=hidden;rotatable=0;points=[[0,0.5],[1,0.5]];portConstraint=eastwest;fontStyle=1;fontFamily=Tahoma;fillColor=#cdeb8b;strokeColor=#36393d;labelBackgroundColor=none;labelBorderColor=none;shadow=0;" parent="cLwiuci_HsSusy-Sjnxw-64" vertex="1">
          <mxGeometry y="260" width="140" height="26" as="geometry" />
        </mxCell>
        <mxCell id="cLwiuci_HsSusy-Sjnxw-75" value="商品单价" style="text;align=left;verticalAlign=top;spacingLeft=4;spacingRight=4;overflow=hidden;rotatable=0;points=[[0,0.5],[1,0.5]];portConstraint=eastwest;fontStyle=1;fontFamily=Tahoma;fillColor=#cdeb8b;strokeColor=#36393d;labelBackgroundColor=none;labelBorderColor=none;shadow=0;" parent="cLwiuci_HsSusy-Sjnxw-64" vertex="1">
          <mxGeometry y="286" width="140" height="26" as="geometry" />
        </mxCell>
        <mxCell id="cLwiuci_HsSusy-Sjnxw-76" value="商品数量" style="text;align=left;verticalAlign=top;spacingLeft=4;spacingRight=4;overflow=hidden;rotatable=0;points=[[0,0.5],[1,0.5]];portConstraint=eastwest;fontStyle=1;fontFamily=Tahoma;fillColor=#cdeb8b;strokeColor=#36393d;labelBackgroundColor=none;labelBorderColor=none;shadow=0;" parent="cLwiuci_HsSusy-Sjnxw-64" vertex="1">
          <mxGeometry y="312" width="140" height="26" as="geometry" />
        </mxCell>
        <mxCell id="cLwiuci_HsSusy-Sjnxw-77" value="商品快照" style="text;align=left;verticalAlign=top;spacingLeft=4;spacingRight=4;overflow=hidden;rotatable=0;points=[[0,0.5],[1,0.5]];portConstraint=eastwest;fontStyle=1;fontFamily=Tahoma;fillColor=#ffff88;strokeColor=#36393d;labelBackgroundColor=none;labelBorderColor=none;shadow=0;" parent="cLwiuci_HsSusy-Sjnxw-64" vertex="1">
          <mxGeometry y="338" width="140" height="26" as="geometry" />
        </mxCell>
        <mxCell id="cLwiuci_HsSusy-Sjnxw-78" value="省名称" style="text;align=left;verticalAlign=top;spacingLeft=4;spacingRight=4;overflow=hidden;rotatable=0;points=[[0,0.5],[1,0.5]];portConstraint=eastwest;fontStyle=1;fontFamily=Tahoma;fillColor=#cdeb8b;strokeColor=#36393d;labelBackgroundColor=none;labelBorderColor=none;shadow=0;" parent="cLwiuci_HsSusy-Sjnxw-64" vertex="1">
          <mxGeometry y="364" width="140" height="26" as="geometry" />
        </mxCell>
        <mxCell id="cLwiuci_HsSusy-Sjnxw-79" value="市名称" style="text;align=left;verticalAlign=top;spacingLeft=4;spacingRight=4;overflow=hidden;rotatable=0;points=[[0,0.5],[1,0.5]];portConstraint=eastwest;fontStyle=1;fontFamily=Tahoma;fillColor=#cdeb8b;strokeColor=#36393d;labelBackgroundColor=none;labelBorderColor=none;shadow=0;" parent="cLwiuci_HsSusy-Sjnxw-64" vertex="1">
          <mxGeometry y="390" width="140" height="26" as="geometry" />
        </mxCell>
        <mxCell id="cLwiuci_HsSusy-Sjnxw-80" value="区名称" style="text;align=left;verticalAlign=top;spacingLeft=4;spacingRight=4;overflow=hidden;rotatable=0;points=[[0,0.5],[1,0.5]];portConstraint=eastwest;fontStyle=1;fontFamily=Tahoma;fillColor=#cdeb8b;strokeColor=#36393d;labelBackgroundColor=none;labelBorderColor=none;shadow=0;" parent="cLwiuci_HsSusy-Sjnxw-64" vertex="1">
          <mxGeometry y="416" width="140" height="26" as="geometry" />
        </mxCell>
        <mxCell id="cLwiuci_HsSusy-Sjnxw-81" value="提单类型" style="text;align=left;verticalAlign=top;spacingLeft=4;spacingRight=4;overflow=hidden;rotatable=0;points=[[0,0.5],[1,0.5]];portConstraint=eastwest;fontStyle=1;fontFamily=Tahoma;fillColor=#cdeb8b;strokeColor=#36393d;labelBackgroundColor=none;labelBorderColor=none;shadow=0;" parent="cLwiuci_HsSusy-Sjnxw-64" vertex="1">
          <mxGeometry y="442" width="140" height="26" as="geometry" />
        </mxCell>
        <mxCell id="cLwiuci_HsSusy-Sjnxw-82" value="pkuId" style="text;align=left;verticalAlign=top;spacingLeft=4;spacingRight=4;overflow=hidden;rotatable=0;points=[[0,0.5],[1,0.5]];portConstraint=eastwest;fontStyle=1;fontFamily=Tahoma;fillColor=#ffff88;strokeColor=#36393d;labelBackgroundColor=none;labelBorderColor=none;shadow=0;" parent="cLwiuci_HsSusy-Sjnxw-64" vertex="1">
          <mxGeometry y="468" width="140" height="26" as="geometry" />
        </mxCell>
        <mxCell id="cLwiuci_HsSusy-Sjnxw-83" value="pskuName" style="text;align=left;verticalAlign=top;spacingLeft=4;spacingRight=4;overflow=hidden;rotatable=0;points=[[0,0.5],[1,0.5]];portConstraint=eastwest;fontStyle=1;fontFamily=Tahoma;fillColor=#ffff88;strokeColor=#36393d;labelBackgroundColor=none;labelBorderColor=none;shadow=0;" parent="cLwiuci_HsSusy-Sjnxw-64" vertex="1">
          <mxGeometry y="494" width="140" height="26" as="geometry" />
        </mxCell>
        <mxCell id="cLwiuci_HsSusy-Sjnxw-85" value="退款金额" style="text;align=left;verticalAlign=top;spacingLeft=4;spacingRight=4;overflow=hidden;rotatable=0;points=[[0,0.5],[1,0.5]];portConstraint=eastwest;fontStyle=1;fontFamily=Tahoma;fillColor=#cdeb8b;strokeColor=#36393d;labelBackgroundColor=none;labelBorderColor=none;shadow=0;" parent="cLwiuci_HsSusy-Sjnxw-64" vertex="1">
          <mxGeometry y="520" width="140" height="26" as="geometry" />
        </mxCell>
        <mxCell id="cLwiuci_HsSusy-Sjnxw-86" value="赔付金额" style="text;align=left;verticalAlign=top;spacingLeft=4;spacingRight=4;overflow=hidden;rotatable=0;points=[[0,0.5],[1,0.5]];portConstraint=eastwest;fontStyle=1;fontFamily=Tahoma;fillColor=#cdeb8b;strokeColor=#36393d;labelBackgroundColor=none;labelBorderColor=none;shadow=0;" parent="cLwiuci_HsSusy-Sjnxw-64" vertex="1">
          <mxGeometry y="546" width="140" height="26" as="geometry" />
        </mxCell>
        <mxCell id="cLwiuci_HsSusy-Sjnxw-87" value="创建时间" style="text;align=left;verticalAlign=top;spacingLeft=4;spacingRight=4;overflow=hidden;rotatable=0;points=[[0,0.5],[1,0.5]];portConstraint=eastwest;fontStyle=1;fontFamily=Tahoma;fillColor=#cdeb8b;strokeColor=#36393d;labelBackgroundColor=none;labelBorderColor=none;shadow=0;" parent="cLwiuci_HsSusy-Sjnxw-64" vertex="1">
          <mxGeometry y="572" width="140" height="26" as="geometry" />
        </mxCell>
        <mxCell id="cLwiuci_HsSusy-Sjnxw-88" value="融易算支付订单" style="swimlane;fontStyle=1;childLayout=stackLayout;horizontal=1;startSize=26;horizontalStack=0;resizeParent=1;resizeParentMax=0;resizeLast=0;collapsible=1;marginBottom=0;rounded=1;fontFamily=Tahoma;fillColor=#ffcc99;strokeColor=#36393d;align=center;labelBackgroundColor=none;labelBorderColor=none;shadow=0;" parent="1" vertex="1">
          <mxGeometry x="524" y="34" width="140" height="286" as="geometry" />
        </mxCell>
        <mxCell id="cLwiuci_HsSusy-Sjnxw-89" value="主键" style="text;align=left;verticalAlign=top;spacingLeft=4;spacingRight=4;overflow=hidden;rotatable=0;points=[[0,0.5],[1,0.5]];portConstraint=eastwest;fontStyle=1;fontFamily=Tahoma;fillColor=#cdeb8b;strokeColor=#36393d;labelBackgroundColor=none;labelBorderColor=none;shadow=0;" parent="cLwiuci_HsSusy-Sjnxw-88" vertex="1">
          <mxGeometry y="26" width="140" height="26" as="geometry" />
        </mxCell>
        <mxCell id="cLwiuci_HsSusy-Sjnxw-90" value="融易算订单id" style="text;align=left;verticalAlign=top;spacingLeft=4;spacingRight=4;overflow=hidden;rotatable=0;points=[[0,0.5],[1,0.5]];portConstraint=eastwest;fontStyle=1;fontFamily=Tahoma;fillColor=#cdeb8b;strokeColor=#36393d;labelBackgroundColor=none;labelBorderColor=none;shadow=0;" parent="cLwiuci_HsSusy-Sjnxw-88" vertex="1">
          <mxGeometry y="52" width="140" height="26" as="geometry" />
        </mxCell>
        <mxCell id="cLwiuci_HsSusy-Sjnxw-91" value="支付订单编号" style="text;align=left;verticalAlign=top;spacingLeft=4;spacingRight=4;overflow=hidden;rotatable=0;points=[[0,0.5],[1,0.5]];portConstraint=eastwest;fontStyle=1;fontFamily=Tahoma;fillColor=#cdeb8b;strokeColor=#36393d;labelBackgroundColor=none;labelBorderColor=none;shadow=0;" parent="cLwiuci_HsSusy-Sjnxw-88" vertex="1">
          <mxGeometry y="78" width="140" height="26" as="geometry" />
        </mxCell>
        <mxCell id="cLwiuci_HsSusy-Sjnxw-92" value="三方交易流水号" style="text;align=left;verticalAlign=top;spacingLeft=4;spacingRight=4;overflow=hidden;rotatable=0;points=[[0,0.5],[1,0.5]];portConstraint=eastwest;fontStyle=1;fontFamily=Tahoma;fillColor=#cdeb8b;strokeColor=#36393d;labelBackgroundColor=none;labelBorderColor=none;shadow=0;" parent="cLwiuci_HsSusy-Sjnxw-88" vertex="1">
          <mxGeometry y="104" width="140" height="26" as="geometry" />
        </mxCell>
        <mxCell id="cLwiuci_HsSusy-Sjnxw-93" value="支付金额" style="text;align=left;verticalAlign=top;spacingLeft=4;spacingRight=4;overflow=hidden;rotatable=0;points=[[0,0.5],[1,0.5]];portConstraint=eastwest;fontStyle=1;fontFamily=Tahoma;fillColor=#cdeb8b;strokeColor=#36393d;labelBackgroundColor=none;labelBorderColor=none;shadow=0;" parent="cLwiuci_HsSusy-Sjnxw-88" vertex="1">
          <mxGeometry y="130" width="140" height="26" as="geometry" />
        </mxCell>
        <mxCell id="cLwiuci_HsSusy-Sjnxw-94" value="支付状态" style="text;align=left;verticalAlign=top;spacingLeft=4;spacingRight=4;overflow=hidden;rotatable=0;points=[[0,0.5],[1,0.5]];portConstraint=eastwest;fontStyle=1;fontFamily=Tahoma;fillColor=#cdeb8b;strokeColor=#36393d;labelBackgroundColor=none;labelBorderColor=none;shadow=0;" parent="cLwiuci_HsSusy-Sjnxw-88" vertex="1">
          <mxGeometry y="156" width="140" height="26" as="geometry" />
        </mxCell>
        <mxCell id="cLwiuci_HsSusy-Sjnxw-95" value="支付渠道" style="text;align=left;verticalAlign=top;spacingLeft=4;spacingRight=4;overflow=hidden;rotatable=0;points=[[0,0.5],[1,0.5]];portConstraint=eastwest;fontStyle=1;fontFamily=Tahoma;fillColor=#cdeb8b;strokeColor=#36393d;labelBackgroundColor=none;labelBorderColor=none;shadow=0;" parent="cLwiuci_HsSusy-Sjnxw-88" vertex="1">
          <mxGeometry y="182" width="140" height="26" as="geometry" />
        </mxCell>
        <mxCell id="cLwiuci_HsSusy-Sjnxw-96" value="支付时间" style="text;align=left;verticalAlign=top;spacingLeft=4;spacingRight=4;overflow=hidden;rotatable=0;points=[[0,0.5],[1,0.5]];portConstraint=eastwest;fontStyle=1;fontFamily=Tahoma;fillColor=#cdeb8b;strokeColor=#36393d;labelBackgroundColor=none;labelBorderColor=none;shadow=0;" parent="cLwiuci_HsSusy-Sjnxw-88" vertex="1">
          <mxGeometry y="208" width="140" height="26" as="geometry" />
        </mxCell>
        <mxCell id="cLwiuci_HsSusy-Sjnxw-97" value="支付信息快照json" style="text;align=left;verticalAlign=top;spacingLeft=4;spacingRight=4;overflow=hidden;rotatable=0;points=[[0,0.5],[1,0.5]];portConstraint=eastwest;fontStyle=1;fontFamily=Tahoma;fillColor=#cdeb8b;strokeColor=#36393d;labelBackgroundColor=none;labelBorderColor=none;shadow=0;" parent="cLwiuci_HsSusy-Sjnxw-88" vertex="1">
          <mxGeometry y="234" width="140" height="26" as="geometry" />
        </mxCell>
        <mxCell id="cLwiuci_HsSusy-Sjnxw-98" value="创建时间" style="text;align=left;verticalAlign=top;spacingLeft=4;spacingRight=4;overflow=hidden;rotatable=0;points=[[0,0.5],[1,0.5]];portConstraint=eastwest;fontStyle=1;fontFamily=Tahoma;fillColor=#cdeb8b;strokeColor=#36393d;labelBackgroundColor=none;labelBorderColor=none;shadow=0;" parent="cLwiuci_HsSusy-Sjnxw-88" vertex="1">
          <mxGeometry y="260" width="140" height="26" as="geometry" />
        </mxCell>
        <mxCell id="cLwiuci_HsSusy-Sjnxw-99" value="1:n" style="edgeStyle=orthogonalEdgeStyle;rounded=0;orthogonalLoop=1;jettySize=auto;fontFamily=Tahoma;fillColor=#cdeb8b;strokeColor=#36393d;fontStyle=0;align=left;labelBackgroundColor=none;labelBorderColor=none;shadow=0;" parent="1" source="cLwiuci_HsSusy-Sjnxw-40" edge="1">
          <mxGeometry relative="1" as="geometry">
            <mxPoint x="523.3333333333335" y="99" as="targetPoint" />
          </mxGeometry>
        </mxCell>
        <mxCell id="cLwiuci_HsSusy-Sjnxw-100" value="融易算退款订单" style="swimlane;fontStyle=1;childLayout=stackLayout;horizontal=1;startSize=26;horizontalStack=0;resizeParent=1;resizeParentMax=0;resizeLast=0;collapsible=1;marginBottom=0;rounded=1;fontFamily=Tahoma;fillColor=#ffcc99;strokeColor=#36393d;align=center;labelBackgroundColor=none;labelBorderColor=none;shadow=0;" parent="1" vertex="1">
          <mxGeometry x="524" y="392" width="140" height="546" as="geometry" />
        </mxCell>
        <mxCell id="cLwiuci_HsSusy-Sjnxw-101" value="退款订单id" style="text;align=left;verticalAlign=top;spacingLeft=4;spacingRight=4;overflow=hidden;rotatable=0;points=[[0,0.5],[1,0.5]];portConstraint=eastwest;fontStyle=1;fontFamily=Tahoma;fillColor=#cdeb8b;strokeColor=#36393d;labelBackgroundColor=none;labelBorderColor=none;shadow=0;" parent="cLwiuci_HsSusy-Sjnxw-100" vertex="1">
          <mxGeometry y="26" width="140" height="26" as="geometry" />
        </mxCell>
        <mxCell id="cLwiuci_HsSusy-Sjnxw-102" value="融易算订单id" style="text;align=left;verticalAlign=top;spacingLeft=4;spacingRight=4;overflow=hidden;rotatable=0;points=[[0,0.5],[1,0.5]];portConstraint=eastwest;fontStyle=1;fontFamily=Tahoma;fillColor=#cdeb8b;strokeColor=#36393d;labelBackgroundColor=none;labelBorderColor=none;shadow=0;" parent="cLwiuci_HsSusy-Sjnxw-100" vertex="1">
          <mxGeometry y="52" width="140" height="26" as="geometry" />
        </mxCell>
        <mxCell id="cLwiuci_HsSusy-Sjnxw-103" value="子订单id" style="text;align=left;verticalAlign=top;spacingLeft=4;spacingRight=4;overflow=hidden;rotatable=0;points=[[0,0.5],[1,0.5]];portConstraint=eastwest;fontStyle=1;fontFamily=Tahoma;fillColor=#cdeb8b;strokeColor=#36393d;labelBackgroundColor=none;labelBorderColor=none;shadow=0;" parent="cLwiuci_HsSusy-Sjnxw-100" vertex="1">
          <mxGeometry y="78" width="140" height="26" as="geometry" />
        </mxCell>
        <mxCell id="cLwiuci_HsSusy-Sjnxw-104" value="退款单号" style="text;align=left;verticalAlign=top;spacingLeft=4;spacingRight=4;overflow=hidden;rotatable=0;points=[[0,0.5],[1,0.5]];portConstraint=eastwest;fontStyle=1;fontFamily=Tahoma;fillColor=#cdeb8b;strokeColor=#36393d;labelBackgroundColor=none;labelBorderColor=none;shadow=0;" parent="cLwiuci_HsSusy-Sjnxw-100" vertex="1">
          <mxGeometry y="104" width="140" height="26" as="geometry" />
        </mxCell>
        <mxCell id="cLwiuci_HsSusy-Sjnxw-105" value="退款金额" style="text;align=left;verticalAlign=top;spacingLeft=4;spacingRight=4;overflow=hidden;rotatable=0;points=[[0,0.5],[1,0.5]];portConstraint=eastwest;fontStyle=1;fontFamily=Tahoma;fillColor=#cdeb8b;strokeColor=#36393d;labelBackgroundColor=none;labelBorderColor=none;shadow=0;" parent="cLwiuci_HsSusy-Sjnxw-100" vertex="1">
          <mxGeometry y="130" width="140" height="26" as="geometry" />
        </mxCell>
        <mxCell id="cLwiuci_HsSusy-Sjnxw-106" value="退款数量" style="text;align=left;verticalAlign=top;spacingLeft=4;spacingRight=4;overflow=hidden;rotatable=0;points=[[0,0.5],[1,0.5]];portConstraint=eastwest;fontStyle=1;fontFamily=Tahoma;fillColor=#cdeb8b;strokeColor=#36393d;labelBackgroundColor=none;labelBorderColor=none;shadow=0;" parent="cLwiuci_HsSusy-Sjnxw-100" vertex="1">
          <mxGeometry y="156" width="140" height="26" as="geometry" />
        </mxCell>
        <mxCell id="cLwiuci_HsSusy-Sjnxw-107" value="退款原因" style="text;align=left;verticalAlign=top;spacingLeft=4;spacingRight=4;overflow=hidden;rotatable=0;points=[[0,0.5],[1,0.5]];portConstraint=eastwest;fontStyle=1;fontFamily=Tahoma;fillColor=#cdeb8b;strokeColor=#36393d;labelBackgroundColor=none;labelBorderColor=none;shadow=0;" parent="cLwiuci_HsSusy-Sjnxw-100" vertex="1">
          <mxGeometry y="182" width="140" height="26" as="geometry" />
        </mxCell>
        <mxCell id="cLwiuci_HsSusy-Sjnxw-108" value="退款状态" style="text;align=left;verticalAlign=top;spacingLeft=4;spacingRight=4;overflow=hidden;rotatable=0;points=[[0,0.5],[1,0.5]];portConstraint=eastwest;fontStyle=1;fontFamily=Tahoma;fillColor=#cdeb8b;strokeColor=#36393d;labelBackgroundColor=none;labelBorderColor=none;shadow=0;" parent="cLwiuci_HsSusy-Sjnxw-100" vertex="1">
          <mxGeometry y="208" width="140" height="26" as="geometry" />
        </mxCell>
        <mxCell id="cLwiuci_HsSusy-Sjnxw-109" value="责任人名称" style="text;align=left;verticalAlign=top;spacingLeft=4;spacingRight=4;overflow=hidden;rotatable=0;points=[[0,0.5],[1,0.5]];portConstraint=eastwest;fontStyle=1;fontFamily=Tahoma;fillColor=#cdeb8b;strokeColor=#36393d;labelBackgroundColor=none;labelBorderColor=none;shadow=0;" parent="cLwiuci_HsSusy-Sjnxw-100" vertex="1">
          <mxGeometry y="234" width="140" height="26" as="geometry" />
        </mxCell>
        <mxCell id="cLwiuci_HsSusy-Sjnxw-110" value="责任人团队名称" style="text;align=left;verticalAlign=top;spacingLeft=4;spacingRight=4;overflow=hidden;rotatable=0;points=[[0,0.5],[1,0.5]];portConstraint=eastwest;fontStyle=1;fontFamily=Tahoma;fillColor=#cdeb8b;strokeColor=#36393d;labelBackgroundColor=none;labelBorderColor=none;shadow=0;" parent="cLwiuci_HsSusy-Sjnxw-100" vertex="1">
          <mxGeometry y="260" width="140" height="26" as="geometry" />
        </mxCell>
        <mxCell id="cLwiuci_HsSusy-Sjnxw-111" value="退款备注" style="text;align=left;verticalAlign=top;spacingLeft=4;spacingRight=4;overflow=hidden;rotatable=0;points=[[0,0.5],[1,0.5]];portConstraint=eastwest;fontStyle=1;fontFamily=Tahoma;fillColor=#cdeb8b;strokeColor=#36393d;labelBackgroundColor=none;labelBorderColor=none;shadow=0;" parent="cLwiuci_HsSusy-Sjnxw-100" vertex="1">
          <mxGeometry y="286" width="140" height="26" as="geometry" />
        </mxCell>
        <mxCell id="cLwiuci_HsSusy-Sjnxw-112" value="发起退款人id" style="text;align=left;verticalAlign=top;spacingLeft=4;spacingRight=4;overflow=hidden;rotatable=0;points=[[0,0.5],[1,0.5]];portConstraint=eastwest;fontStyle=1;fontFamily=Tahoma;fillColor=#cdeb8b;strokeColor=#36393d;labelBackgroundColor=none;labelBorderColor=none;shadow=0;" parent="cLwiuci_HsSusy-Sjnxw-100" vertex="1">
          <mxGeometry y="312" width="140" height="26" as="geometry" />
        </mxCell>
        <mxCell id="cLwiuci_HsSusy-Sjnxw-113" value="发起退款人姓名" style="text;align=left;verticalAlign=top;spacingLeft=4;spacingRight=4;overflow=hidden;rotatable=0;points=[[0,0.5],[1,0.5]];portConstraint=eastwest;fontStyle=1;fontFamily=Tahoma;fillColor=#cdeb8b;strokeColor=#36393d;labelBackgroundColor=none;labelBorderColor=none;shadow=0;" parent="cLwiuci_HsSusy-Sjnxw-100" vertex="1">
          <mxGeometry y="338" width="140" height="26" as="geometry" />
        </mxCell>
        <mxCell id="cLwiuci_HsSusy-Sjnxw-114" value="审批人id" style="text;align=left;verticalAlign=top;spacingLeft=4;spacingRight=4;overflow=hidden;rotatable=0;points=[[0,0.5],[1,0.5]];portConstraint=eastwest;fontStyle=1;fontFamily=Tahoma;fillColor=#cdeb8b;strokeColor=#36393d;labelBackgroundColor=none;labelBorderColor=none;shadow=0;" parent="cLwiuci_HsSusy-Sjnxw-100" vertex="1">
          <mxGeometry y="364" width="140" height="26" as="geometry" />
        </mxCell>
        <mxCell id="cLwiuci_HsSusy-Sjnxw-115" value="审批人姓名" style="text;align=left;verticalAlign=top;spacingLeft=4;spacingRight=4;overflow=hidden;rotatable=0;points=[[0,0.5],[1,0.5]];portConstraint=eastwest;fontStyle=1;fontFamily=Tahoma;fillColor=#cdeb8b;strokeColor=#36393d;labelBackgroundColor=none;labelBorderColor=none;shadow=0;" parent="cLwiuci_HsSusy-Sjnxw-100" vertex="1">
          <mxGeometry y="390" width="140" height="26" as="geometry" />
        </mxCell>
        <mxCell id="cLwiuci_HsSusy-Sjnxw-116" value="审批时间" style="text;align=left;verticalAlign=top;spacingLeft=4;spacingRight=4;overflow=hidden;rotatable=0;points=[[0,0.5],[1,0.5]];portConstraint=eastwest;fontStyle=1;fontFamily=Tahoma;fillColor=#cdeb8b;strokeColor=#36393d;labelBackgroundColor=none;labelBorderColor=none;shadow=0;" parent="cLwiuci_HsSusy-Sjnxw-100" vertex="1">
          <mxGeometry y="416" width="140" height="26" as="geometry" />
        </mxCell>
        <mxCell id="cLwiuci_HsSusy-Sjnxw-117" value="审批结果" style="text;align=left;verticalAlign=top;spacingLeft=4;spacingRight=4;overflow=hidden;rotatable=0;points=[[0,0.5],[1,0.5]];portConstraint=eastwest;fontStyle=1;fontFamily=Tahoma;fillColor=#cdeb8b;strokeColor=#36393d;labelBackgroundColor=none;labelBorderColor=none;shadow=0;" parent="cLwiuci_HsSusy-Sjnxw-100" vertex="1">
          <mxGeometry y="442" width="140" height="26" as="geometry" />
        </mxCell>
        <mxCell id="cLwiuci_HsSusy-Sjnxw-118" value="退款任务id" style="text;align=left;verticalAlign=top;spacingLeft=4;spacingRight=4;overflow=hidden;rotatable=0;points=[[0,0.5],[1,0.5]];portConstraint=eastwest;fontStyle=1;fontFamily=Tahoma;fillColor=#cdeb8b;strokeColor=#36393d;labelBackgroundColor=none;labelBorderColor=none;shadow=0;" parent="cLwiuci_HsSusy-Sjnxw-100" vertex="1">
          <mxGeometry y="468" width="140" height="26" as="geometry" />
        </mxCell>
        <mxCell id="cLwiuci_HsSusy-Sjnxw-119" value="退款支付时间" style="text;align=left;verticalAlign=top;spacingLeft=4;spacingRight=4;overflow=hidden;rotatable=0;points=[[0,0.5],[1,0.5]];portConstraint=eastwest;fontStyle=1;fontFamily=Tahoma;fillColor=#cdeb8b;strokeColor=#36393d;labelBackgroundColor=none;labelBorderColor=none;shadow=0;" parent="cLwiuci_HsSusy-Sjnxw-100" vertex="1">
          <mxGeometry y="494" width="140" height="26" as="geometry" />
        </mxCell>
        <mxCell id="cLwiuci_HsSusy-Sjnxw-120" value="创建时间" style="text;align=left;verticalAlign=top;spacingLeft=4;spacingRight=4;overflow=hidden;rotatable=0;points=[[0,0.5],[1,0.5]];portConstraint=eastwest;fontStyle=1;fontFamily=Tahoma;fillColor=#cdeb8b;strokeColor=#36393d;labelBackgroundColor=none;labelBorderColor=none;shadow=0;" parent="cLwiuci_HsSusy-Sjnxw-100" vertex="1">
          <mxGeometry y="520" width="140" height="26" as="geometry" />
        </mxCell>
        <mxCell id="cLwiuci_HsSusy-Sjnxw-121" value="融易算赔付订单" style="swimlane;fontStyle=1;childLayout=stackLayout;horizontal=1;startSize=26;horizontalStack=0;resizeParent=1;resizeParentMax=0;resizeLast=0;collapsible=1;marginBottom=0;rounded=1;fontFamily=Tahoma;fillColor=#fad7ac;strokeColor=#b46504;align=left;labelBackgroundColor=none;labelBorderColor=none;shadow=0;" parent="1" vertex="1">
          <mxGeometry x="-68" y="644" width="140" height="312" as="geometry" />
        </mxCell>
        <mxCell id="cLwiuci_HsSusy-Sjnxw-122" value="赔付订单id" style="text;align=left;verticalAlign=top;spacingLeft=4;spacingRight=4;overflow=hidden;rotatable=0;points=[[0,0.5],[1,0.5]];portConstraint=eastwest;fontStyle=1;fontFamily=Tahoma;fillColor=#cdeb8b;strokeColor=#36393d;labelBackgroundColor=none;labelBorderColor=none;shadow=0;" parent="cLwiuci_HsSusy-Sjnxw-121" vertex="1">
          <mxGeometry y="26" width="140" height="26" as="geometry" />
        </mxCell>
        <mxCell id="cLwiuci_HsSusy-Sjnxw-123" value="融易算订单id" style="text;align=left;verticalAlign=top;spacingLeft=4;spacingRight=4;overflow=hidden;rotatable=0;points=[[0,0.5],[1,0.5]];portConstraint=eastwest;fontStyle=1;fontFamily=Tahoma;fillColor=#cdeb8b;strokeColor=#36393d;labelBackgroundColor=none;labelBorderColor=none;shadow=0;" parent="cLwiuci_HsSusy-Sjnxw-121" vertex="1">
          <mxGeometry y="52" width="140" height="26" as="geometry" />
        </mxCell>
        <mxCell id="cLwiuci_HsSusy-Sjnxw-124" value="子订单id" style="text;align=left;verticalAlign=top;spacingLeft=4;spacingRight=4;overflow=hidden;rotatable=0;points=[[0,0.5],[1,0.5]];portConstraint=eastwest;fontStyle=1;fontFamily=Tahoma;fillColor=#cdeb8b;strokeColor=#36393d;labelBackgroundColor=none;labelBorderColor=none;shadow=0;" parent="cLwiuci_HsSusy-Sjnxw-121" vertex="1">
          <mxGeometry y="78" width="140" height="26" as="geometry" />
        </mxCell>
        <mxCell id="cLwiuci_HsSusy-Sjnxw-125" value="赔付单号" style="text;align=left;verticalAlign=top;spacingLeft=4;spacingRight=4;overflow=hidden;rotatable=0;points=[[0,0.5],[1,0.5]];portConstraint=eastwest;fontStyle=1;fontFamily=Tahoma;fillColor=#cdeb8b;strokeColor=#36393d;labelBackgroundColor=none;labelBorderColor=none;shadow=0;" parent="cLwiuci_HsSusy-Sjnxw-121" vertex="1">
          <mxGeometry y="104" width="140" height="26" as="geometry" />
        </mxCell>
        <mxCell id="cLwiuci_HsSusy-Sjnxw-126" value="赔偿金" style="text;align=left;verticalAlign=top;spacingLeft=4;spacingRight=4;overflow=hidden;rotatable=0;points=[[0,0.5],[1,0.5]];portConstraint=eastwest;fontStyle=1;fontFamily=Tahoma;fillColor=#cdeb8b;strokeColor=#36393d;labelBackgroundColor=none;labelBorderColor=none;shadow=0;" parent="cLwiuci_HsSusy-Sjnxw-121" vertex="1">
          <mxGeometry y="130" width="140" height="26" as="geometry" />
        </mxCell>
        <mxCell id="cLwiuci_HsSusy-Sjnxw-127" value="赔付原因" style="text;align=left;verticalAlign=top;spacingLeft=4;spacingRight=4;overflow=hidden;rotatable=0;points=[[0,0.5],[1,0.5]];portConstraint=eastwest;fontStyle=1;fontFamily=Tahoma;fillColor=#cdeb8b;strokeColor=#36393d;labelBackgroundColor=none;labelBorderColor=none;shadow=0;" parent="cLwiuci_HsSusy-Sjnxw-121" vertex="1">
          <mxGeometry y="156" width="140" height="26" as="geometry" />
        </mxCell>
        <mxCell id="cLwiuci_HsSusy-Sjnxw-128" value="赔付单备注" style="text;align=left;verticalAlign=top;spacingLeft=4;spacingRight=4;overflow=hidden;rotatable=0;points=[[0,0.5],[1,0.5]];portConstraint=eastwest;fontStyle=1;fontFamily=Tahoma;fillColor=#cdeb8b;strokeColor=#36393d;labelBackgroundColor=none;labelBorderColor=none;shadow=0;" parent="cLwiuci_HsSusy-Sjnxw-121" vertex="1">
          <mxGeometry y="182" width="140" height="26" as="geometry" />
        </mxCell>
        <mxCell id="cLwiuci_HsSusy-Sjnxw-129" value="额外支出金额" style="text;align=left;verticalAlign=top;spacingLeft=4;spacingRight=4;overflow=hidden;rotatable=0;points=[[0,0.5],[1,0.5]];portConstraint=eastwest;fontStyle=1;fontFamily=Tahoma;fillColor=#cdeb8b;strokeColor=#36393d;labelBackgroundColor=none;labelBorderColor=none;shadow=0;" parent="cLwiuci_HsSusy-Sjnxw-121" vertex="1">
          <mxGeometry y="208" width="140" height="26" as="geometry" />
        </mxCell>
        <mxCell id="cLwiuci_HsSusy-Sjnxw-130" value="责任人名称" style="text;align=left;verticalAlign=top;spacingLeft=4;spacingRight=4;overflow=hidden;rotatable=0;points=[[0,0.5],[1,0.5]];portConstraint=eastwest;fontStyle=1;fontFamily=Tahoma;fillColor=#cdeb8b;strokeColor=#36393d;labelBackgroundColor=none;labelBorderColor=none;shadow=0;" parent="cLwiuci_HsSusy-Sjnxw-121" vertex="1">
          <mxGeometry y="234" width="140" height="26" as="geometry" />
        </mxCell>
        <mxCell id="cLwiuci_HsSusy-Sjnxw-131" value="赔付支付时间" style="text;align=left;verticalAlign=top;spacingLeft=4;spacingRight=4;overflow=hidden;rotatable=0;points=[[0,0.5],[1,0.5]];portConstraint=eastwest;fontStyle=1;fontFamily=Tahoma;fillColor=#cdeb8b;strokeColor=#36393d;labelBackgroundColor=none;labelBorderColor=none;shadow=0;" parent="cLwiuci_HsSusy-Sjnxw-121" vertex="1">
          <mxGeometry y="260" width="140" height="26" as="geometry" />
        </mxCell>
        <mxCell id="cLwiuci_HsSusy-Sjnxw-132" value="创建时间" style="text;align=left;verticalAlign=top;spacingLeft=4;spacingRight=4;overflow=hidden;rotatable=0;points=[[0,0.5],[1,0.5]];portConstraint=eastwest;fontStyle=1;fontFamily=Tahoma;fillColor=#cdeb8b;strokeColor=#36393d;labelBackgroundColor=none;labelBorderColor=none;shadow=0;" parent="cLwiuci_HsSusy-Sjnxw-121" vertex="1">
          <mxGeometry y="286" width="140" height="26" as="geometry" />
        </mxCell>
        <mxCell id="cLwiuci_HsSusy-Sjnxw-133" value="1:n" style="edgeStyle=orthogonalEdgeStyle;rounded=0;orthogonalLoop=1;jettySize=auto;html=0;exitX=1;exitY=0.5;exitDx=0;exitDy=0;entryX=0.006;entryY=0.794;entryDx=0;entryDy=0;entryPerimeter=0;shadow=0;labelBackgroundColor=none;fontFamily=Tahoma;align=left;" parent="1" source="cLwiuci_HsSusy-Sjnxw-83" target="cLwiuci_HsSusy-Sjnxw-112" edge="1">
          <mxGeometry relative="1" as="geometry" />
        </mxCell>
        <mxCell id="cLwiuci_HsSusy-Sjnxw-134" value="n:1" style="edgeStyle=orthogonalEdgeStyle;rounded=0;orthogonalLoop=1;jettySize=auto;html=0;shadow=0;labelBackgroundColor=none;fontFamily=Tahoma;align=left;" parent="1" source="cLwiuci_HsSusy-Sjnxw-87" edge="1">
          <mxGeometry relative="1" as="geometry">
            <mxPoint x="78" y="802" as="targetPoint" />
          </mxGeometry>
        </mxCell>
        <mxCell id="cLwiuci_HsSusy-Sjnxw-135" value="1:n" style="edgeStyle=orthogonalEdgeStyle;rounded=0;orthogonalLoop=1;jettySize=auto;html=1;entryX=1;entryY=0.5;entryDx=0;entryDy=0;" parent="1" source="cLwiuci_HsSusy-Sjnxw-33" target="cLwiuci_HsSusy-Sjnxw-5" edge="1">
          <mxGeometry relative="1" as="geometry" />
        </mxCell>
        <mxCell id="cLwiuci_HsSusy-Sjnxw-137" value="psku快照" style="swimlane;fontStyle=1;childLayout=stackLayout;horizontal=1;startSize=26;horizontalStack=0;resizeParent=1;resizeParentMax=0;resizeLast=0;collapsible=1;marginBottom=0;rounded=1;fontFamily=Tahoma;fillColor=#ffcc99;strokeColor=#36393d;align=center;labelBackgroundColor=none;labelBorderColor=none;shadow=0;" parent="1" vertex="1">
          <mxGeometry x="-68" y="425" width="140" height="182" as="geometry" />
        </mxCell>
        <mxCell id="cLwiuci_HsSusy-Sjnxw-138" value="pskuid" style="text;align=left;verticalAlign=top;spacingLeft=4;spacingRight=4;overflow=hidden;rotatable=0;points=[[0,0.5],[1,0.5]];portConstraint=eastwest;fontStyle=1;fontFamily=Tahoma;fillColor=#ffff88;strokeColor=#36393d;labelBackgroundColor=none;labelBorderColor=none;shadow=0;" parent="cLwiuci_HsSusy-Sjnxw-137" vertex="1">
          <mxGeometry y="26" width="140" height="26" as="geometry" />
        </mxCell>
        <mxCell id="cLwiuci_HsSusy-Sjnxw-139" value="skuId" style="text;align=left;verticalAlign=top;spacingLeft=4;spacingRight=4;overflow=hidden;rotatable=0;points=[[0,0.5],[1,0.5]];portConstraint=eastwest;fontStyle=1;fontFamily=Tahoma;fillColor=#ffff88;strokeColor=#36393d;labelBackgroundColor=none;labelBorderColor=none;shadow=0;" parent="cLwiuci_HsSusy-Sjnxw-137" vertex="1">
          <mxGeometry y="52" width="140" height="26" as="geometry" />
        </mxCell>
        <mxCell id="cLwiuci_HsSusy-Sjnxw-140" value="psku名称" style="text;align=left;verticalAlign=top;spacingLeft=4;spacingRight=4;overflow=hidden;rotatable=0;points=[[0,0.5],[1,0.5]];portConstraint=eastwest;fontStyle=1;fontFamily=Tahoma;fillColor=#ffff88;strokeColor=#36393d;labelBackgroundColor=none;labelBorderColor=none;shadow=0;" parent="cLwiuci_HsSusy-Sjnxw-137" vertex="1">
          <mxGeometry y="78" width="140" height="26" as="geometry" />
        </mxCell>
        <mxCell id="cLwiuci_HsSusy-Sjnxw-141" value="售价" style="text;align=left;verticalAlign=top;spacingLeft=4;spacingRight=4;overflow=hidden;rotatable=0;points=[[0,0.5],[1,0.5]];portConstraint=eastwest;fontStyle=1;fontFamily=Tahoma;fillColor=#ffff88;strokeColor=#36393d;labelBackgroundColor=none;labelBorderColor=none;shadow=0;" parent="cLwiuci_HsSusy-Sjnxw-137" vertex="1">
          <mxGeometry y="104" width="140" height="26" as="geometry" />
        </mxCell>
        <mxCell id="cLwiuci_HsSusy-Sjnxw-142" value="属性" style="text;align=left;verticalAlign=top;spacingLeft=4;spacingRight=4;overflow=hidden;rotatable=0;points=[[0,0.5],[1,0.5]];portConstraint=eastwest;fontStyle=1;fontFamily=Tahoma;fillColor=#ffff88;strokeColor=#36393d;labelBackgroundColor=none;labelBorderColor=none;shadow=0;" parent="cLwiuci_HsSusy-Sjnxw-137" vertex="1">
          <mxGeometry y="130" width="140" height="26" as="geometry" />
        </mxCell>
        <mxCell id="cLwiuci_HsSusy-Sjnxw-148" value="创建时间" style="text;align=left;verticalAlign=top;spacingLeft=4;spacingRight=4;overflow=hidden;rotatable=0;points=[[0,0.5],[1,0.5]];portConstraint=eastwest;fontStyle=1;fontFamily=Tahoma;fillColor=#ffff88;strokeColor=#36393d;labelBackgroundColor=none;labelBorderColor=none;shadow=0;" parent="cLwiuci_HsSusy-Sjnxw-137" vertex="1">
          <mxGeometry y="156" width="140" height="26" as="geometry" />
        </mxCell>
        <mxCell id="cLwiuci_HsSusy-Sjnxw-157" value="更改数据结构" style="edgeStyle=orthogonalEdgeStyle;rounded=0;orthogonalLoop=1;jettySize=auto;html=1;entryX=0.5;entryY=0;entryDx=0;entryDy=0;" parent="1" source="cLwiuci_HsSusy-Sjnxw-149" target="cLwiuci_HsSusy-Sjnxw-137" edge="1">
          <mxGeometry relative="1" as="geometry">
            <mxPoint x="-1" y="544.1250610351562" as="targetPoint" />
          </mxGeometry>
        </mxCell>
        <mxCell id="cLwiuci_HsSusy-Sjnxw-149" value="商品快照" style="swimlane;fontStyle=1;childLayout=stackLayout;horizontal=1;startSize=26;horizontalStack=0;resizeParent=1;resizeParentMax=0;resizeLast=0;collapsible=1;marginBottom=0;rounded=1;fontFamily=Tahoma;fillColor=#ffcc99;strokeColor=#36393d;align=center;labelBackgroundColor=none;labelBorderColor=none;shadow=0;" parent="1" vertex="1">
          <mxGeometry x="-68" y="199" width="140" height="182" as="geometry" />
        </mxCell>
        <mxCell id="cLwiuci_HsSusy-Sjnxw-150" value="pskuid" style="text;align=left;verticalAlign=top;spacingLeft=4;spacingRight=4;overflow=hidden;rotatable=0;points=[[0,0.5],[1,0.5]];portConstraint=eastwest;fontStyle=1;fontFamily=Tahoma;fillColor=#eeeeee;strokeColor=#36393d;labelBackgroundColor=none;labelBorderColor=none;shadow=0;" parent="cLwiuci_HsSusy-Sjnxw-149" vertex="1">
          <mxGeometry y="26" width="140" height="26" as="geometry" />
        </mxCell>
        <mxCell id="cLwiuci_HsSusy-Sjnxw-151" value="skuId" style="text;align=left;verticalAlign=top;spacingLeft=4;spacingRight=4;overflow=hidden;rotatable=0;points=[[0,0.5],[1,0.5]];portConstraint=eastwest;fontStyle=1;fontFamily=Tahoma;fillColor=#eeeeee;strokeColor=#36393d;labelBackgroundColor=none;labelBorderColor=none;shadow=0;" parent="cLwiuci_HsSusy-Sjnxw-149" vertex="1">
          <mxGeometry y="52" width="140" height="26" as="geometry" />
        </mxCell>
        <mxCell id="cLwiuci_HsSusy-Sjnxw-152" value="psku名称" style="text;align=left;verticalAlign=top;spacingLeft=4;spacingRight=4;overflow=hidden;rotatable=0;points=[[0,0.5],[1,0.5]];portConstraint=eastwest;fontStyle=1;fontFamily=Tahoma;fillColor=#eeeeee;strokeColor=#36393d;labelBackgroundColor=none;labelBorderColor=none;shadow=0;" parent="cLwiuci_HsSusy-Sjnxw-149" vertex="1">
          <mxGeometry y="78" width="140" height="26" as="geometry" />
        </mxCell>
        <mxCell id="cLwiuci_HsSusy-Sjnxw-153" value="售价" style="text;align=left;verticalAlign=top;spacingLeft=4;spacingRight=4;overflow=hidden;rotatable=0;points=[[0,0.5],[1,0.5]];portConstraint=eastwest;fontStyle=1;fontFamily=Tahoma;fillColor=#eeeeee;strokeColor=#36393d;labelBackgroundColor=none;labelBorderColor=none;shadow=0;" parent="cLwiuci_HsSusy-Sjnxw-149" vertex="1">
          <mxGeometry y="104" width="140" height="26" as="geometry" />
        </mxCell>
        <mxCell id="cLwiuci_HsSusy-Sjnxw-154" value="属性" style="text;align=left;verticalAlign=top;spacingLeft=4;spacingRight=4;overflow=hidden;rotatable=0;points=[[0,0.5],[1,0.5]];portConstraint=eastwest;fontStyle=1;fontFamily=Tahoma;fillColor=#eeeeee;strokeColor=#36393d;labelBackgroundColor=none;labelBorderColor=none;shadow=0;" parent="cLwiuci_HsSusy-Sjnxw-149" vertex="1">
          <mxGeometry y="130" width="140" height="26" as="geometry" />
        </mxCell>
        <mxCell id="cLwiuci_HsSusy-Sjnxw-155" value="创建时间" style="text;align=left;verticalAlign=top;spacingLeft=4;spacingRight=4;overflow=hidden;rotatable=0;points=[[0,0.5],[1,0.5]];portConstraint=eastwest;fontStyle=1;fontFamily=Tahoma;fillColor=#eeeeee;strokeColor=#36393d;labelBackgroundColor=none;labelBorderColor=none;shadow=0;" parent="cLwiuci_HsSusy-Sjnxw-149" vertex="1">
          <mxGeometry y="156" width="140" height="26" as="geometry" />
        </mxCell>
        <mxCell id="cLwiuci_HsSusy-Sjnxw-158" style="edgeStyle=orthogonalEdgeStyle;rounded=0;orthogonalLoop=1;jettySize=auto;html=1;entryX=1;entryY=0.5;entryDx=0;entryDy=0;" parent="1" source="cLwiuci_HsSusy-Sjnxw-77" target="cLwiuci_HsSusy-Sjnxw-149" edge="1">
          <mxGeometry relative="1" as="geometry" />
        </mxCell>
        <mxCell id="ASgwzm6N97YV4ngfsRbp-24" value="线索需求跟进表" style="swimlane;fontStyle=1;childLayout=stackLayout;horizontal=1;startSize=26;horizontalStack=0;resizeParent=1;resizeParentMax=0;resizeLast=0;collapsible=1;marginBottom=0;rounded=1;fontFamily=Tahoma;fillColor=#fad7ac;strokeColor=#b46504;align=center;labelBackgroundColor=none;labelBorderColor=none;shadow=0;" parent="1" vertex="1">
          <mxGeometry x="-699" y="34" width="140" height="286" as="geometry" />
        </mxCell>
        <mxCell id="ASgwzm6N97YV4ngfsRbp-25" value="线索ID" style="text;align=left;verticalAlign=top;spacingLeft=4;spacingRight=4;overflow=hidden;rotatable=0;points=[[0,0.5],[1,0.5]];portConstraint=eastwest;fontStyle=1;fontFamily=Tahoma;fillColor=#cdeb8b;strokeColor=#36393d;labelBackgroundColor=none;labelBorderColor=none;shadow=0;" parent="ASgwzm6N97YV4ngfsRbp-24" vertex="1">
          <mxGeometry y="26" width="140" height="26" as="geometry" />
        </mxCell>
        <mxCell id="ASgwzm6N97YV4ngfsRbp-26" value="需求省份code" style="text;align=left;verticalAlign=top;spacingLeft=4;spacingRight=4;overflow=hidden;rotatable=0;points=[[0,0.5],[1,0.5]];portConstraint=eastwest;fontStyle=1;fontFamily=Tahoma;fillColor=#cdeb8b;strokeColor=#36393d;labelBackgroundColor=none;labelBorderColor=none;shadow=0;" parent="ASgwzm6N97YV4ngfsRbp-24" vertex="1">
          <mxGeometry y="52" width="140" height="26" as="geometry" />
        </mxCell>
        <mxCell id="ASgwzm6N97YV4ngfsRbp-27" value="需求城市code" style="text;align=left;verticalAlign=top;spacingLeft=4;spacingRight=4;overflow=hidden;rotatable=0;points=[[0,0.5],[1,0.5]];portConstraint=eastwest;fontStyle=1;fontFamily=Tahoma;fillColor=#cdeb8b;strokeColor=#36393d;labelBackgroundColor=none;labelBorderColor=none;shadow=0;" parent="ASgwzm6N97YV4ngfsRbp-24" vertex="1">
          <mxGeometry y="78" width="140" height="26" as="geometry" />
        </mxCell>
        <mxCell id="ASgwzm6N97YV4ngfsRbp-28" value="需求商品" style="text;align=left;verticalAlign=top;spacingLeft=4;spacingRight=4;overflow=hidden;rotatable=0;points=[[0,0.5],[1,0.5]];portConstraint=eastwest;fontStyle=1;fontFamily=Tahoma;labelBackgroundColor=none;labelBorderColor=none;shadow=0;" parent="ASgwzm6N97YV4ngfsRbp-24" vertex="1">
          <mxGeometry y="104" width="140" height="26" as="geometry" />
        </mxCell>
        <mxCell id="ASgwzm6N97YV4ngfsRbp-29" value="需求明细备注" style="text;align=left;verticalAlign=top;spacingLeft=4;spacingRight=4;overflow=hidden;rotatable=0;points=[[0,0.5],[1,0.5]];portConstraint=eastwest;fontStyle=1;fontFamily=Tahoma;fillColor=#cdeb8b;strokeColor=#36393d;labelBackgroundColor=none;labelBorderColor=none;shadow=0;" parent="ASgwzm6N97YV4ngfsRbp-24" vertex="1">
          <mxGeometry y="130" width="140" height="26" as="geometry" />
        </mxCell>
        <mxCell id="ASgwzm6N97YV4ngfsRbp-30" value="客户备注" style="text;align=left;verticalAlign=top;spacingLeft=4;spacingRight=4;overflow=hidden;rotatable=0;points=[[0,0.5],[1,0.5]];portConstraint=eastwest;fontStyle=1;fontFamily=Tahoma;fillColor=#cdeb8b;strokeColor=#36393d;labelBackgroundColor=none;labelBorderColor=none;shadow=0;" parent="ASgwzm6N97YV4ngfsRbp-24" vertex="1">
          <mxGeometry y="156" width="140" height="26" as="geometry" />
        </mxCell>
        <mxCell id="ASgwzm6N97YV4ngfsRbp-31" value="需求报价" style="text;align=left;verticalAlign=top;spacingLeft=4;spacingRight=4;overflow=hidden;rotatable=0;points=[[0,0.5],[1,0.5]];portConstraint=eastwest;fontStyle=1;fontFamily=Tahoma;fillColor=#cdeb8b;strokeColor=#36393d;labelBackgroundColor=none;labelBorderColor=none;shadow=0;" parent="ASgwzm6N97YV4ngfsRbp-24" vertex="1">
          <mxGeometry y="182" width="140" height="26" as="geometry" />
        </mxCell>
        <mxCell id="ASgwzm6N97YV4ngfsRbp-32" value="下次跟进时间" style="text;align=left;verticalAlign=top;spacingLeft=4;spacingRight=4;overflow=hidden;rotatable=0;points=[[0,0.5],[1,0.5]];portConstraint=eastwest;fontStyle=1;fontFamily=Tahoma;fillColor=#cdeb8b;strokeColor=#36393d;labelBackgroundColor=none;labelBorderColor=none;shadow=0;" parent="ASgwzm6N97YV4ngfsRbp-24" vertex="1">
          <mxGeometry y="208" width="140" height="26" as="geometry" />
        </mxCell>
        <mxCell id="ASgwzm6N97YV4ngfsRbp-33" value="下次跟进思路" style="text;align=left;verticalAlign=top;spacingLeft=4;spacingRight=4;overflow=hidden;rotatable=0;points=[[0,0.5],[1,0.5]];portConstraint=eastwest;fontStyle=1;fontFamily=Tahoma;fillColor=#cdeb8b;strokeColor=#36393d;labelBackgroundColor=none;labelBorderColor=none;shadow=0;" parent="ASgwzm6N97YV4ngfsRbp-24" vertex="1">
          <mxGeometry y="234" width="140" height="26" as="geometry" />
        </mxCell>
        <mxCell id="ASgwzm6N97YV4ngfsRbp-34" value="创建时间" style="text;align=left;verticalAlign=top;spacingLeft=4;spacingRight=4;overflow=hidden;rotatable=0;points=[[0,0.5],[1,0.5]];portConstraint=eastwest;fontStyle=1;fontFamily=Tahoma;fillColor=#cdeb8b;strokeColor=#36393d;labelBackgroundColor=none;labelBorderColor=none;shadow=0;" parent="ASgwzm6N97YV4ngfsRbp-24" vertex="1">
          <mxGeometry y="260" width="140" height="26" as="geometry" />
        </mxCell>
        <mxCell id="ASgwzm6N97YV4ngfsRbp-36" value="需求商品表" style="swimlane;fontStyle=1;childLayout=stackLayout;horizontal=1;startSize=26;horizontalStack=0;resizeParent=1;resizeParentMax=0;resizeLast=0;collapsible=1;marginBottom=0;rounded=1;sketch=0;swimlaneFillColor=none;fontFamily=Tahoma;fillColor=#ffcc99;strokeColor=#36393d;" parent="1" vertex="1">
          <mxGeometry x="-699" y="370" width="140" height="182" as="geometry" />
        </mxCell>
        <mxCell id="ASgwzm6N97YV4ngfsRbp-37" value="线索ID" style="text;align=left;verticalAlign=top;spacingLeft=4;spacingRight=4;overflow=hidden;rotatable=0;points=[[0,0.5],[1,0.5]];portConstraint=eastwest;fontStyle=1;fontFamily=Tahoma;fillColor=#ffff88;strokeColor=#36393d;" parent="ASgwzm6N97YV4ngfsRbp-36" vertex="1">
          <mxGeometry y="26" width="140" height="26" as="geometry" />
        </mxCell>
        <mxCell id="ASgwzm6N97YV4ngfsRbp-38" value="需求商品ID" style="text;align=left;verticalAlign=top;spacingLeft=4;spacingRight=4;overflow=hidden;rotatable=0;points=[[0,0.5],[1,0.5]];portConstraint=eastwest;fontStyle=1;fontFamily=Tahoma;fillColor=#ffff88;strokeColor=#36393d;" parent="ASgwzm6N97YV4ngfsRbp-36" vertex="1">
          <mxGeometry y="52" width="140" height="26" as="geometry" />
        </mxCell>
        <mxCell id="ASgwzm6N97YV4ngfsRbp-39" value="需求商品价格" style="text;align=left;verticalAlign=top;spacingLeft=4;spacingRight=4;overflow=hidden;rotatable=0;points=[[0,0.5],[1,0.5]];portConstraint=eastwest;fontStyle=1;fontFamily=Tahoma;fillColor=#ffff88;strokeColor=#36393d;" parent="ASgwzm6N97YV4ngfsRbp-36" vertex="1">
          <mxGeometry y="78" width="140" height="26" as="geometry" />
        </mxCell>
        <mxCell id="ASgwzm6N97YV4ngfsRbp-40" value="需求商品名称" style="text;align=left;verticalAlign=top;spacingLeft=4;spacingRight=4;overflow=hidden;rotatable=0;points=[[0,0.5],[1,0.5]];portConstraint=eastwest;fontStyle=1;fontFamily=Tahoma;fillColor=#ffff88;strokeColor=#36393d;" parent="ASgwzm6N97YV4ngfsRbp-36" vertex="1">
          <mxGeometry y="104" width="140" height="26" as="geometry" />
        </mxCell>
        <mxCell id="ASgwzm6N97YV4ngfsRbp-41" value="需求商品分类ID" style="text;align=left;verticalAlign=top;spacingLeft=4;spacingRight=4;overflow=hidden;rotatable=0;points=[[0,0.5],[1,0.5]];portConstraint=eastwest;fontStyle=1;fontFamily=Tahoma;fillColor=#ffff88;strokeColor=#36393d;" parent="ASgwzm6N97YV4ngfsRbp-36" vertex="1">
          <mxGeometry y="130" width="140" height="26" as="geometry" />
        </mxCell>
        <mxCell id="ASgwzm6N97YV4ngfsRbp-42" value="创建时间" style="text;align=left;verticalAlign=top;spacingLeft=4;spacingRight=4;overflow=hidden;rotatable=0;points=[[0,0.5],[1,0.5]];portConstraint=eastwest;fontStyle=1;fontFamily=Tahoma;fillColor=#ffff88;strokeColor=#36393d;" parent="ASgwzm6N97YV4ngfsRbp-36" vertex="1">
          <mxGeometry y="156" width="140" height="26" as="geometry" />
        </mxCell>
        <mxCell id="tDvsfQHy7dEI8ow95c8_-2" value="商机表" style="swimlane;fontStyle=1;childLayout=stackLayout;horizontal=1;startSize=26;horizontalStack=0;resizeParent=1;resizeParentMax=0;resizeLast=0;collapsible=1;marginBottom=0;rounded=1;fontFamily=Tahoma;fillColor=#fad7ac;strokeColor=#b46504;align=center;labelBackgroundColor=none;labelBorderColor=none;shadow=0;" vertex="1" parent="1">
          <mxGeometry x="-276" y="199" width="140" height="364" as="geometry" />
        </mxCell>
        <mxCell id="tDvsfQHy7dEI8ow95c8_-3" value="商机id" style="text;align=left;verticalAlign=top;spacingLeft=4;spacingRight=4;overflow=hidden;rotatable=0;points=[[0,0.5],[1,0.5]];portConstraint=eastwest;fontStyle=1;fontFamily=Tahoma;fillColor=#cdeb8b;strokeColor=#36393d;labelBackgroundColor=none;labelBorderColor=none;shadow=0;" vertex="1" parent="tDvsfQHy7dEI8ow95c8_-2">
          <mxGeometry y="26" width="140" height="26" as="geometry" />
        </mxCell>
        <mxCell id="tDvsfQHy7dEI8ow95c8_-4" value="线索id" style="text;align=left;verticalAlign=top;spacingLeft=4;spacingRight=4;overflow=hidden;rotatable=0;points=[[0,0.5],[1,0.5]];portConstraint=eastwest;fontStyle=1;fontFamily=Tahoma;fillColor=#cdeb8b;strokeColor=#36393d;labelBackgroundColor=none;labelBorderColor=none;shadow=0;" vertex="1" parent="tDvsfQHy7dEI8ow95c8_-2">
          <mxGeometry y="52" width="140" height="26" as="geometry" />
        </mxCell>
        <mxCell id="tDvsfQHy7dEI8ow95c8_-5" value="渠道" style="text;align=left;verticalAlign=top;spacingLeft=4;spacingRight=4;overflow=hidden;rotatable=0;points=[[0,0.5],[1,0.5]];portConstraint=eastwest;fontStyle=1;fontFamily=Tahoma;fillColor=#cdeb8b;strokeColor=#36393d;labelBackgroundColor=none;labelBorderColor=none;shadow=0;" vertex="1" parent="tDvsfQHy7dEI8ow95c8_-2">
          <mxGeometry y="78" width="140" height="26" as="geometry" />
        </mxCell>
        <mxCell id="tDvsfQHy7dEI8ow95c8_-6" value="咨询方式" style="text;align=left;verticalAlign=top;spacingLeft=4;spacingRight=4;overflow=hidden;rotatable=0;points=[[0,0.5],[1,0.5]];portConstraint=eastwest;fontStyle=1;fontFamily=Tahoma;labelBackgroundColor=none;labelBorderColor=none;shadow=0;fillColor=#cdeb8b;strokeColor=#36393d;" vertex="1" parent="tDvsfQHy7dEI8ow95c8_-2">
          <mxGeometry y="104" width="140" height="26" as="geometry" />
        </mxCell>
        <mxCell id="tDvsfQHy7dEI8ow95c8_-7" value="是否有注册地址" style="text;align=left;verticalAlign=top;spacingLeft=4;spacingRight=4;overflow=hidden;rotatable=0;points=[[0,0.5],[1,0.5]];portConstraint=eastwest;fontStyle=1;fontFamily=Tahoma;fillColor=#cdeb8b;strokeColor=#36393d;labelBackgroundColor=none;labelBorderColor=none;shadow=0;" vertex="1" parent="tDvsfQHy7dEI8ow95c8_-2">
          <mxGeometry y="130" width="140" height="26" as="geometry" />
        </mxCell>
        <mxCell id="tDvsfQHy7dEI8ow95c8_-8" value="商品类目id" style="text;align=left;verticalAlign=top;spacingLeft=4;spacingRight=4;overflow=hidden;rotatable=0;points=[[0,0.5],[1,0.5]];portConstraint=eastwest;fontStyle=1;fontFamily=Tahoma;fillColor=#cdeb8b;strokeColor=#36393d;labelBackgroundColor=none;labelBorderColor=none;shadow=0;" vertex="1" parent="tDvsfQHy7dEI8ow95c8_-2">
          <mxGeometry y="156" width="140" height="26" as="geometry" />
        </mxCell>
        <mxCell id="tDvsfQHy7dEI8ow95c8_-9" value="商品类目备注" style="text;align=left;verticalAlign=top;spacingLeft=4;spacingRight=4;overflow=hidden;rotatable=0;points=[[0,0.5],[1,0.5]];portConstraint=eastwest;fontStyle=1;fontFamily=Tahoma;fillColor=#cdeb8b;strokeColor=#36393d;labelBackgroundColor=none;labelBorderColor=none;shadow=0;" vertex="1" parent="tDvsfQHy7dEI8ow95c8_-2">
          <mxGeometry y="182" width="140" height="26" as="geometry" />
        </mxCell>
        <mxCell id="tDvsfQHy7dEI8ow95c8_-12" value="意向度" style="text;align=left;verticalAlign=top;spacingLeft=4;spacingRight=4;overflow=hidden;rotatable=0;points=[[0,0.5],[1,0.5]];portConstraint=eastwest;fontStyle=1;fontFamily=Tahoma;fillColor=#cdeb8b;strokeColor=#36393d;labelBackgroundColor=none;labelBorderColor=none;shadow=0;" vertex="1" parent="tDvsfQHy7dEI8ow95c8_-2">
          <mxGeometry y="208" width="140" height="26" as="geometry" />
        </mxCell>
        <mxCell id="tDvsfQHy7dEI8ow95c8_-13" value="阿里云意向id" style="text;align=left;verticalAlign=top;spacingLeft=4;spacingRight=4;overflow=hidden;rotatable=0;points=[[0,0.5],[1,0.5]];portConstraint=eastwest;fontStyle=1;fontFamily=Tahoma;fillColor=#cdeb8b;strokeColor=#36393d;labelBackgroundColor=none;labelBorderColor=none;shadow=0;" vertex="1" parent="tDvsfQHy7dEI8ow95c8_-2">
          <mxGeometry y="234" width="140" height="26" as="geometry" />
        </mxCell>
        <mxCell id="tDvsfQHy7dEI8ow95c8_-14" value="转化状态" style="text;align=left;verticalAlign=top;spacingLeft=4;spacingRight=4;overflow=hidden;rotatable=0;points=[[0,0.5],[1,0.5]];portConstraint=eastwest;fontStyle=1;fontFamily=Tahoma;fillColor=#cdeb8b;strokeColor=#36393d;labelBackgroundColor=none;labelBorderColor=none;shadow=0;" vertex="1" parent="tDvsfQHy7dEI8ow95c8_-2">
          <mxGeometry y="260" width="140" height="26" as="geometry" />
        </mxCell>
        <mxCell id="tDvsfQHy7dEI8ow95c8_-15" value="删除原因" style="text;align=left;verticalAlign=top;spacingLeft=4;spacingRight=4;overflow=hidden;rotatable=0;points=[[0,0.5],[1,0.5]];portConstraint=eastwest;fontStyle=1;fontFamily=Tahoma;fillColor=#cdeb8b;strokeColor=#36393d;labelBackgroundColor=none;labelBorderColor=none;shadow=0;" vertex="1" parent="tDvsfQHy7dEI8ow95c8_-2">
          <mxGeometry y="286" width="140" height="26" as="geometry" />
        </mxCell>
        <mxCell id="tDvsfQHy7dEI8ow95c8_-16" value="删除原因备注" style="text;align=left;verticalAlign=top;spacingLeft=4;spacingRight=4;overflow=hidden;rotatable=0;points=[[0,0.5],[1,0.5]];portConstraint=eastwest;fontStyle=1;fontFamily=Tahoma;fillColor=#cdeb8b;strokeColor=#36393d;labelBackgroundColor=none;labelBorderColor=none;shadow=0;" vertex="1" parent="tDvsfQHy7dEI8ow95c8_-2">
          <mxGeometry y="312" width="140" height="26" as="geometry" />
        </mxCell>
        <mxCell id="tDvsfQHy7dEI8ow95c8_-18" value="创建时间" style="text;align=left;verticalAlign=top;spacingLeft=4;spacingRight=4;overflow=hidden;rotatable=0;points=[[0,0.5],[1,0.5]];portConstraint=eastwest;fontStyle=1;fontFamily=Tahoma;fillColor=#cdeb8b;strokeColor=#36393d;labelBackgroundColor=none;labelBorderColor=none;shadow=0;" vertex="1" parent="tDvsfQHy7dEI8ow95c8_-2">
          <mxGeometry y="338" width="140" height="26" as="geometry" />
        </mxCell>
        <mxCell id="tDvsfQHy7dEI8ow95c8_-133" value="1:1" style="edgeStyle=orthogonalEdgeStyle;rounded=0;orthogonalLoop=1;jettySize=auto;html=1;" edge="1" parent="1" source="tDvsfQHy7dEI8ow95c8_-19">
          <mxGeometry relative="1" as="geometry">
            <mxPoint x="-206" y="571.7917175292969" as="targetPoint" />
          </mxGeometry>
        </mxCell>
        <mxCell id="tDvsfQHy7dEI8ow95c8_-19" value="商机-子订单转化表" style="swimlane;fontStyle=1;childLayout=stackLayout;horizontal=1;startSize=26;horizontalStack=0;resizeParent=1;resizeParentMax=0;resizeLast=0;collapsible=1;marginBottom=0;rounded=1;fontFamily=Tahoma;fillColor=#fad7ac;strokeColor=#b46504;align=center;labelBackgroundColor=none;labelBorderColor=none;shadow=0;" vertex="1" parent="1">
          <mxGeometry x="-276" y="607" width="140" height="156" as="geometry" />
        </mxCell>
        <mxCell id="tDvsfQHy7dEI8ow95c8_-20" value="商机id" style="text;align=left;verticalAlign=top;spacingLeft=4;spacingRight=4;overflow=hidden;rotatable=0;points=[[0,0.5],[1,0.5]];portConstraint=eastwest;fontStyle=1;fontFamily=Tahoma;fillColor=#cdeb8b;strokeColor=#36393d;labelBackgroundColor=none;labelBorderColor=none;shadow=0;" vertex="1" parent="tDvsfQHy7dEI8ow95c8_-19">
          <mxGeometry y="26" width="140" height="26" as="geometry" />
        </mxCell>
        <mxCell id="tDvsfQHy7dEI8ow95c8_-21" value="线索id" style="text;align=left;verticalAlign=top;spacingLeft=4;spacingRight=4;overflow=hidden;rotatable=0;points=[[0,0.5],[1,0.5]];portConstraint=eastwest;fontStyle=1;fontFamily=Tahoma;fillColor=#cdeb8b;strokeColor=#36393d;labelBackgroundColor=none;labelBorderColor=none;shadow=0;" vertex="1" parent="tDvsfQHy7dEI8ow95c8_-19">
          <mxGeometry y="52" width="140" height="26" as="geometry" />
        </mxCell>
        <mxCell id="tDvsfQHy7dEI8ow95c8_-22" value="子订单id" style="text;align=left;verticalAlign=top;spacingLeft=4;spacingRight=4;overflow=hidden;rotatable=0;points=[[0,0.5],[1,0.5]];portConstraint=eastwest;fontStyle=1;fontFamily=Tahoma;fillColor=#cdeb8b;strokeColor=#36393d;labelBackgroundColor=none;labelBorderColor=none;shadow=0;" vertex="1" parent="tDvsfQHy7dEI8ow95c8_-19">
          <mxGeometry y="78" width="140" height="26" as="geometry" />
        </mxCell>
        <mxCell id="tDvsfQHy7dEI8ow95c8_-24" value="订单id" style="text;align=left;verticalAlign=top;spacingLeft=4;spacingRight=4;overflow=hidden;rotatable=0;points=[[0,0.5],[1,0.5]];portConstraint=eastwest;fontStyle=1;fontFamily=Tahoma;fillColor=#cdeb8b;strokeColor=#36393d;labelBackgroundColor=none;labelBorderColor=none;shadow=0;" vertex="1" parent="tDvsfQHy7dEI8ow95c8_-19">
          <mxGeometry y="104" width="140" height="26" as="geometry" />
        </mxCell>
        <mxCell id="tDvsfQHy7dEI8ow95c8_-29" value="创建时间" style="text;align=left;verticalAlign=top;spacingLeft=4;spacingRight=4;overflow=hidden;rotatable=0;points=[[0,0.5],[1,0.5]];portConstraint=eastwest;fontStyle=1;fontFamily=Tahoma;fillColor=#cdeb8b;strokeColor=#36393d;labelBackgroundColor=none;labelBorderColor=none;shadow=0;" vertex="1" parent="tDvsfQHy7dEI8ow95c8_-19">
          <mxGeometry y="130" width="140" height="26" as="geometry" />
        </mxCell>
        <mxCell id="tDvsfQHy7dEI8ow95c8_-30" value="线索订单关联表" style="swimlane;fontStyle=1;childLayout=stackLayout;horizontal=1;startSize=26;horizontalStack=0;resizeParent=1;resizeParentMax=0;resizeLast=0;collapsible=1;marginBottom=0;rounded=1;fontFamily=Tahoma;fillColor=#fad7ac;strokeColor=#b46504;align=center;labelBackgroundColor=none;labelBorderColor=none;shadow=0;" vertex="1" parent="1">
          <mxGeometry x="-276" y="34" width="140" height="104" as="geometry" />
        </mxCell>
        <mxCell id="tDvsfQHy7dEI8ow95c8_-32" value="线索id" style="text;align=left;verticalAlign=top;spacingLeft=4;spacingRight=4;overflow=hidden;rotatable=0;points=[[0,0.5],[1,0.5]];portConstraint=eastwest;fontStyle=1;fontFamily=Tahoma;fillColor=#cdeb8b;strokeColor=#36393d;labelBackgroundColor=none;labelBorderColor=none;shadow=0;" vertex="1" parent="tDvsfQHy7dEI8ow95c8_-30">
          <mxGeometry y="26" width="140" height="26" as="geometry" />
        </mxCell>
        <mxCell id="tDvsfQHy7dEI8ow95c8_-34" value="订单id" style="text;align=left;verticalAlign=top;spacingLeft=4;spacingRight=4;overflow=hidden;rotatable=0;points=[[0,0.5],[1,0.5]];portConstraint=eastwest;fontStyle=1;fontFamily=Tahoma;fillColor=#cdeb8b;strokeColor=#36393d;labelBackgroundColor=none;labelBorderColor=none;shadow=0;" vertex="1" parent="tDvsfQHy7dEI8ow95c8_-30">
          <mxGeometry y="52" width="140" height="26" as="geometry" />
        </mxCell>
        <mxCell id="tDvsfQHy7dEI8ow95c8_-35" value="创建时间" style="text;align=left;verticalAlign=top;spacingLeft=4;spacingRight=4;overflow=hidden;rotatable=0;points=[[0,0.5],[1,0.5]];portConstraint=eastwest;fontStyle=1;fontFamily=Tahoma;fillColor=#cdeb8b;strokeColor=#36393d;labelBackgroundColor=none;labelBorderColor=none;shadow=0;" vertex="1" parent="tDvsfQHy7dEI8ow95c8_-30">
          <mxGeometry y="78" width="140" height="26" as="geometry" />
        </mxCell>
        <mxCell id="tDvsfQHy7dEI8ow95c8_-37" value="1:1" style="edgeStyle=orthogonalEdgeStyle;rounded=0;orthogonalLoop=1;jettySize=auto;html=1;entryX=1.025;entryY=0.103;entryDx=0;entryDy=0;entryPerimeter=0;" edge="1" parent="1">
          <mxGeometry relative="1" as="geometry">
            <mxPoint x="133" y="628" as="sourcePoint" />
            <mxPoint x="-136.5" y="628.6780000000001" as="targetPoint" />
            <Array as="points">
              <mxPoint x="-2" y="628" />
              <mxPoint x="-2" y="629" />
            </Array>
          </mxGeometry>
        </mxCell>
        <mxCell id="tDvsfQHy7dEI8ow95c8_-41" value="1:!" style="edgeStyle=orthogonalEdgeStyle;rounded=0;orthogonalLoop=1;jettySize=auto;html=1;" edge="1" parent="1" source="cLwiuci_HsSusy-Sjnxw-43">
          <mxGeometry relative="1" as="geometry">
            <mxPoint x="-160.99295043945312" y="148.4583740234375" as="targetPoint" />
            <Array as="points">
              <mxPoint x="-161" y="184" />
            </Array>
          </mxGeometry>
        </mxCell>
        <mxCell id="tDvsfQHy7dEI8ow95c8_-137" value="1:n" style="edgeStyle=orthogonalEdgeStyle;rounded=0;orthogonalLoop=1;jettySize=auto;html=1;" edge="1" parent="1" source="tDvsfQHy7dEI8ow95c8_-44">
          <mxGeometry relative="1" as="geometry">
            <mxPoint x="-282.3262634277344" y="425" as="targetPoint" />
          </mxGeometry>
        </mxCell>
        <mxCell id="tDvsfQHy7dEI8ow95c8_-44" value="线索表" style="swimlane;fontStyle=1;childLayout=stackLayout;horizontal=1;startSize=26;horizontalStack=0;resizeParent=1;resizeParentMax=0;resizeLast=0;collapsible=1;marginBottom=0;rounded=1;fontFamily=Tahoma;fillColor=#fad7ac;strokeColor=#b46504;align=center;labelBackgroundColor=none;labelBorderColor=none;shadow=0;" vertex="1" parent="1">
          <mxGeometry x="-482" y="35" width="140" height="780" as="geometry" />
        </mxCell>
        <mxCell id="tDvsfQHy7dEI8ow95c8_-45" value="线索ID" style="text;align=left;verticalAlign=top;spacingLeft=4;spacingRight=4;overflow=hidden;rotatable=0;points=[[0,0.5],[1,0.5]];portConstraint=eastwest;fontStyle=1;fontFamily=Tahoma;fillColor=#cdeb8b;strokeColor=#36393d;labelBackgroundColor=none;labelBorderColor=none;shadow=0;" vertex="1" parent="tDvsfQHy7dEI8ow95c8_-44">
          <mxGeometry y="26" width="140" height="26" as="geometry" />
        </mxCell>
        <mxCell id="tDvsfQHy7dEI8ow95c8_-46" value="渠道" style="text;align=left;verticalAlign=top;spacingLeft=4;spacingRight=4;overflow=hidden;rotatable=0;points=[[0,0.5],[1,0.5]];portConstraint=eastwest;fontStyle=1;fontFamily=Tahoma;fillColor=#cdeb8b;strokeColor=#36393d;labelBackgroundColor=none;labelBorderColor=none;shadow=0;" vertex="1" parent="tDvsfQHy7dEI8ow95c8_-44">
          <mxGeometry y="52" width="140" height="26" as="geometry" />
        </mxCell>
        <mxCell id="tDvsfQHy7dEI8ow95c8_-47" value="状态" style="text;align=left;verticalAlign=top;spacingLeft=4;spacingRight=4;overflow=hidden;rotatable=0;points=[[0,0.5],[1,0.5]];portConstraint=eastwest;fontStyle=1;fontFamily=Tahoma;fillColor=#cdeb8b;strokeColor=#36393d;labelBackgroundColor=none;labelBorderColor=none;shadow=0;" vertex="1" parent="tDvsfQHy7dEI8ow95c8_-44">
          <mxGeometry y="78" width="140" height="26" as="geometry" />
        </mxCell>
        <mxCell id="tDvsfQHy7dEI8ow95c8_-48" value="咨询方式" style="text;align=left;verticalAlign=top;spacingLeft=4;spacingRight=4;overflow=hidden;rotatable=0;points=[[0,0.5],[1,0.5]];portConstraint=eastwest;fontStyle=1;fontFamily=Tahoma;labelBackgroundColor=none;labelBorderColor=none;shadow=0;fillColor=#cdeb8b;strokeColor=#36393d;" vertex="1" parent="tDvsfQHy7dEI8ow95c8_-44">
          <mxGeometry y="104" width="140" height="26" as="geometry" />
        </mxCell>
        <mxCell id="tDvsfQHy7dEI8ow95c8_-49" value="省code" style="text;align=left;verticalAlign=top;spacingLeft=4;spacingRight=4;overflow=hidden;rotatable=0;points=[[0,0.5],[1,0.5]];portConstraint=eastwest;fontStyle=1;fontFamily=Tahoma;fillColor=#cdeb8b;strokeColor=#36393d;labelBackgroundColor=none;labelBorderColor=none;shadow=0;" vertex="1" parent="tDvsfQHy7dEI8ow95c8_-44">
          <mxGeometry y="130" width="140" height="26" as="geometry" />
        </mxCell>
        <mxCell id="tDvsfQHy7dEI8ow95c8_-50" value="市code" style="text;align=left;verticalAlign=top;spacingLeft=4;spacingRight=4;overflow=hidden;rotatable=0;points=[[0,0.5],[1,0.5]];portConstraint=eastwest;fontStyle=1;fontFamily=Tahoma;fillColor=#cdeb8b;strokeColor=#36393d;labelBackgroundColor=none;labelBorderColor=none;shadow=0;" vertex="1" parent="tDvsfQHy7dEI8ow95c8_-44">
          <mxGeometry y="156" width="140" height="26" as="geometry" />
        </mxCell>
        <mxCell id="tDvsfQHy7dEI8ow95c8_-51" value="区code" style="text;align=left;verticalAlign=top;spacingLeft=4;spacingRight=4;overflow=hidden;rotatable=0;points=[[0,0.5],[1,0.5]];portConstraint=eastwest;fontStyle=1;fontFamily=Tahoma;fillColor=#cdeb8b;strokeColor=#36393d;labelBackgroundColor=none;labelBorderColor=none;shadow=0;" vertex="1" parent="tDvsfQHy7dEI8ow95c8_-44">
          <mxGeometry y="182" width="140" height="26" as="geometry" />
        </mxCell>
        <mxCell id="tDvsfQHy7dEI8ow95c8_-52" value="客户名称" style="text;align=left;verticalAlign=top;spacingLeft=4;spacingRight=4;overflow=hidden;rotatable=0;points=[[0,0.5],[1,0.5]];portConstraint=eastwest;fontStyle=1;fontFamily=Tahoma;fillColor=#cdeb8b;strokeColor=#36393d;labelBackgroundColor=none;labelBorderColor=none;shadow=0;" vertex="1" parent="tDvsfQHy7dEI8ow95c8_-44">
          <mxGeometry y="208" width="140" height="26" as="geometry" />
        </mxCell>
        <mxCell id="tDvsfQHy7dEI8ow95c8_-53" value="经营范围" style="text;align=left;verticalAlign=top;spacingLeft=4;spacingRight=4;overflow=hidden;rotatable=0;points=[[0,0.5],[1,0.5]];portConstraint=eastwest;fontStyle=1;fontFamily=Tahoma;fillColor=#cdeb8b;strokeColor=#36393d;labelBackgroundColor=none;labelBorderColor=none;shadow=0;" vertex="1" parent="tDvsfQHy7dEI8ow95c8_-44">
          <mxGeometry y="234" width="140" height="26" as="geometry" />
        </mxCell>
        <mxCell id="tDvsfQHy7dEI8ow95c8_-54" value="客户行业" style="text;align=left;verticalAlign=top;spacingLeft=4;spacingRight=4;overflow=hidden;rotatable=0;points=[[0,0.5],[1,0.5]];portConstraint=eastwest;fontStyle=1;fontFamily=Tahoma;fillColor=#cdeb8b;strokeColor=#36393d;labelBackgroundColor=none;labelBorderColor=none;shadow=0;" vertex="1" parent="tDvsfQHy7dEI8ow95c8_-44">
          <mxGeometry y="260" width="140" height="26" as="geometry" />
        </mxCell>
        <mxCell id="tDvsfQHy7dEI8ow95c8_-55" value="企业类型" style="text;align=left;verticalAlign=top;spacingLeft=4;spacingRight=4;overflow=hidden;rotatable=0;points=[[0,0.5],[1,0.5]];portConstraint=eastwest;fontStyle=1;fontFamily=Tahoma;fillColor=#cdeb8b;strokeColor=#36393d;labelBackgroundColor=none;labelBorderColor=none;shadow=0;" vertex="1" parent="tDvsfQHy7dEI8ow95c8_-44">
          <mxGeometry y="286" width="140" height="26" as="geometry" />
        </mxCell>
        <mxCell id="tDvsfQHy7dEI8ow95c8_-56" value="手机号" style="text;align=left;verticalAlign=top;spacingLeft=4;spacingRight=4;overflow=hidden;rotatable=0;points=[[0,0.5],[1,0.5]];portConstraint=eastwest;fontStyle=1;fontFamily=Tahoma;fillColor=#cdeb8b;strokeColor=#36393d;labelBackgroundColor=none;labelBorderColor=none;shadow=0;" vertex="1" parent="tDvsfQHy7dEI8ow95c8_-44">
          <mxGeometry y="312" width="140" height="26" as="geometry" />
        </mxCell>
        <mxCell id="tDvsfQHy7dEI8ow95c8_-57" value="微信号" style="text;align=left;verticalAlign=top;spacingLeft=4;spacingRight=4;overflow=hidden;rotatable=0;points=[[0,0.5],[1,0.5]];portConstraint=eastwest;fontStyle=1;fontFamily=Tahoma;fillColor=#cdeb8b;strokeColor=#36393d;labelBackgroundColor=none;labelBorderColor=none;shadow=0;" vertex="1" parent="tDvsfQHy7dEI8ow95c8_-44">
          <mxGeometry y="338" width="140" height="26" as="geometry" />
        </mxCell>
        <mxCell id="tDvsfQHy7dEI8ow95c8_-114" value="邮件地址" style="text;align=left;verticalAlign=top;spacingLeft=4;spacingRight=4;overflow=hidden;rotatable=0;points=[[0,0.5],[1,0.5]];portConstraint=eastwest;fontStyle=1;fontFamily=Tahoma;fillColor=#cdeb8b;strokeColor=#36393d;labelBackgroundColor=none;labelBorderColor=none;shadow=0;" vertex="1" parent="tDvsfQHy7dEI8ow95c8_-44">
          <mxGeometry y="364" width="140" height="26" as="geometry" />
        </mxCell>
        <mxCell id="tDvsfQHy7dEI8ow95c8_-115" value="钉钉号" style="text;align=left;verticalAlign=top;spacingLeft=4;spacingRight=4;overflow=hidden;rotatable=0;points=[[0,0.5],[1,0.5]];portConstraint=eastwest;fontStyle=1;fontFamily=Tahoma;fillColor=#cdeb8b;strokeColor=#36393d;labelBackgroundColor=none;labelBorderColor=none;shadow=0;" vertex="1" parent="tDvsfQHy7dEI8ow95c8_-44">
          <mxGeometry y="390" width="140" height="26" as="geometry" />
        </mxCell>
        <mxCell id="tDvsfQHy7dEI8ow95c8_-116" value="旺旺号" style="text;align=left;verticalAlign=top;spacingLeft=4;spacingRight=4;overflow=hidden;rotatable=0;points=[[0,0.5],[1,0.5]];portConstraint=eastwest;fontStyle=1;fontFamily=Tahoma;fillColor=#cdeb8b;strokeColor=#36393d;labelBackgroundColor=none;labelBorderColor=none;shadow=0;" vertex="1" parent="tDvsfQHy7dEI8ow95c8_-44">
          <mxGeometry y="416" width="140" height="26" as="geometry" />
        </mxCell>
        <mxCell id="tDvsfQHy7dEI8ow95c8_-117" value="获取方式分类编码" style="text;align=left;verticalAlign=top;spacingLeft=4;spacingRight=4;overflow=hidden;rotatable=0;points=[[0,0.5],[1,0.5]];portConstraint=eastwest;fontStyle=1;fontFamily=Tahoma;fillColor=#cdeb8b;strokeColor=#36393d;labelBackgroundColor=none;labelBorderColor=none;shadow=0;" vertex="1" parent="tDvsfQHy7dEI8ow95c8_-44">
          <mxGeometry y="442" width="140" height="26" as="geometry" />
        </mxCell>
        <mxCell id="tDvsfQHy7dEI8ow95c8_-118" value="归属人id" style="text;align=left;verticalAlign=top;spacingLeft=4;spacingRight=4;overflow=hidden;rotatable=0;points=[[0,0.5],[1,0.5]];portConstraint=eastwest;fontStyle=1;fontFamily=Tahoma;fillColor=#cdeb8b;strokeColor=#36393d;labelBackgroundColor=none;labelBorderColor=none;shadow=0;" vertex="1" parent="tDvsfQHy7dEI8ow95c8_-44">
          <mxGeometry y="468" width="140" height="26" as="geometry" />
        </mxCell>
        <mxCell id="tDvsfQHy7dEI8ow95c8_-119" value="归属人名称" style="text;align=left;verticalAlign=top;spacingLeft=4;spacingRight=4;overflow=hidden;rotatable=0;points=[[0,0.5],[1,0.5]];portConstraint=eastwest;fontStyle=1;fontFamily=Tahoma;fillColor=#cdeb8b;strokeColor=#36393d;labelBackgroundColor=none;labelBorderColor=none;shadow=0;" vertex="1" parent="tDvsfQHy7dEI8ow95c8_-44">
          <mxGeometry y="494" width="140" height="26" as="geometry" />
        </mxCell>
        <mxCell id="tDvsfQHy7dEI8ow95c8_-120" value="归属组织id" style="text;align=left;verticalAlign=top;spacingLeft=4;spacingRight=4;overflow=hidden;rotatable=0;points=[[0,0.5],[1,0.5]];portConstraint=eastwest;fontStyle=1;fontFamily=Tahoma;fillColor=#cdeb8b;strokeColor=#36393d;labelBackgroundColor=none;labelBorderColor=none;shadow=0;" vertex="1" parent="tDvsfQHy7dEI8ow95c8_-44">
          <mxGeometry y="520" width="140" height="26" as="geometry" />
        </mxCell>
        <mxCell id="tDvsfQHy7dEI8ow95c8_-121" value="归属部门id" style="text;align=left;verticalAlign=top;spacingLeft=4;spacingRight=4;overflow=hidden;rotatable=0;points=[[0,0.5],[1,0.5]];portConstraint=eastwest;fontStyle=1;fontFamily=Tahoma;fillColor=#cdeb8b;strokeColor=#36393d;labelBackgroundColor=none;labelBorderColor=none;shadow=0;" vertex="1" parent="tDvsfQHy7dEI8ow95c8_-44">
          <mxGeometry y="546" width="140" height="26" as="geometry" />
        </mxCell>
        <mxCell id="tDvsfQHy7dEI8ow95c8_-122" value="归属部门名称" style="text;align=left;verticalAlign=top;spacingLeft=4;spacingRight=4;overflow=hidden;rotatable=0;points=[[0,0.5],[1,0.5]];portConstraint=eastwest;fontStyle=1;fontFamily=Tahoma;fillColor=#cdeb8b;strokeColor=#36393d;labelBackgroundColor=none;labelBorderColor=none;shadow=0;" vertex="1" parent="tDvsfQHy7dEI8ow95c8_-44">
          <mxGeometry y="572" width="140" height="26" as="geometry" />
        </mxCell>
        <mxCell id="tDvsfQHy7dEI8ow95c8_-123" value="归属类型" style="text;align=left;verticalAlign=top;spacingLeft=4;spacingRight=4;overflow=hidden;rotatable=0;points=[[0,0.5],[1,0.5]];portConstraint=eastwest;fontStyle=1;fontFamily=Tahoma;fillColor=#cdeb8b;strokeColor=#36393d;labelBackgroundColor=none;labelBorderColor=none;shadow=0;" vertex="1" parent="tDvsfQHy7dEI8ow95c8_-44">
          <mxGeometry y="598" width="140" height="26" as="geometry" />
        </mxCell>
        <mxCell id="tDvsfQHy7dEI8ow95c8_-124" value="前归属人id" style="text;align=left;verticalAlign=top;spacingLeft=4;spacingRight=4;overflow=hidden;rotatable=0;points=[[0,0.5],[1,0.5]];portConstraint=eastwest;fontStyle=1;fontFamily=Tahoma;fillColor=#cdeb8b;strokeColor=#36393d;labelBackgroundColor=none;labelBorderColor=none;shadow=0;" vertex="1" parent="tDvsfQHy7dEI8ow95c8_-44">
          <mxGeometry y="624" width="140" height="26" as="geometry" />
        </mxCell>
        <mxCell id="tDvsfQHy7dEI8ow95c8_-125" value="前归属人姓名" style="text;align=left;verticalAlign=top;spacingLeft=4;spacingRight=4;overflow=hidden;rotatable=0;points=[[0,0.5],[1,0.5]];portConstraint=eastwest;fontStyle=1;fontFamily=Tahoma;fillColor=#cdeb8b;strokeColor=#36393d;labelBackgroundColor=none;labelBorderColor=none;shadow=0;" vertex="1" parent="tDvsfQHy7dEI8ow95c8_-44">
          <mxGeometry y="650" width="140" height="26" as="geometry" />
        </mxCell>
        <mxCell id="tDvsfQHy7dEI8ow95c8_-126" value="转化状态" style="text;align=left;verticalAlign=top;spacingLeft=4;spacingRight=4;overflow=hidden;rotatable=0;points=[[0,0.5],[1,0.5]];portConstraint=eastwest;fontStyle=1;fontFamily=Tahoma;fillColor=#cdeb8b;strokeColor=#36393d;labelBackgroundColor=none;labelBorderColor=none;shadow=0;" vertex="1" parent="tDvsfQHy7dEI8ow95c8_-44">
          <mxGeometry y="676" width="140" height="26" as="geometry" />
        </mxCell>
        <mxCell id="tDvsfQHy7dEI8ow95c8_-127" value="锁定状态" style="text;align=left;verticalAlign=top;spacingLeft=4;spacingRight=4;overflow=hidden;rotatable=0;points=[[0,0.5],[1,0.5]];portConstraint=eastwest;fontStyle=1;fontFamily=Tahoma;fillColor=#cdeb8b;strokeColor=#36393d;labelBackgroundColor=none;labelBorderColor=none;shadow=0;" vertex="1" parent="tDvsfQHy7dEI8ow95c8_-44">
          <mxGeometry y="702" width="140" height="26" as="geometry" />
        </mxCell>
        <mxCell id="tDvsfQHy7dEI8ow95c8_-128" value="转化类型" style="text;align=left;verticalAlign=top;spacingLeft=4;spacingRight=4;overflow=hidden;rotatable=0;points=[[0,0.5],[1,0.5]];portConstraint=eastwest;fontStyle=1;fontFamily=Tahoma;fillColor=#cdeb8b;strokeColor=#36393d;labelBackgroundColor=none;labelBorderColor=none;shadow=0;" vertex="1" parent="tDvsfQHy7dEI8ow95c8_-44">
          <mxGeometry y="728" width="140" height="26" as="geometry" />
        </mxCell>
        <mxCell id="tDvsfQHy7dEI8ow95c8_-129" value="创建时间" style="text;align=left;verticalAlign=top;spacingLeft=4;spacingRight=4;overflow=hidden;rotatable=0;points=[[0,0.5],[1,0.5]];portConstraint=eastwest;fontStyle=1;fontFamily=Tahoma;fillColor=#cdeb8b;strokeColor=#36393d;labelBackgroundColor=none;labelBorderColor=none;shadow=0;" vertex="1" parent="tDvsfQHy7dEI8ow95c8_-44">
          <mxGeometry y="754" width="140" height="26" as="geometry" />
        </mxCell>
        <mxCell id="tDvsfQHy7dEI8ow95c8_-136" value="1:1" style="edgeStyle=orthogonalEdgeStyle;rounded=0;orthogonalLoop=1;jettySize=auto;html=1;" edge="1" parent="1" source="tDvsfQHy7dEI8ow95c8_-46">
          <mxGeometry relative="1" as="geometry">
            <mxPoint x="-278.9929504394531" y="100" as="targetPoint" />
          </mxGeometry>
        </mxCell>
        <mxCell id="tDvsfQHy7dEI8ow95c8_-138" value="1:1" style="edgeStyle=orthogonalEdgeStyle;rounded=0;orthogonalLoop=1;jettySize=auto;html=1;" edge="1" parent="1" source="tDvsfQHy7dEI8ow95c8_-49">
          <mxGeometry relative="1" as="geometry">
            <mxPoint x="-550.1040954589844" y="178" as="targetPoint" />
          </mxGeometry>
        </mxCell>
        <mxCell id="tDvsfQHy7dEI8ow95c8_-139" value="1:n" style="edgeStyle=orthogonalEdgeStyle;rounded=0;orthogonalLoop=1;jettySize=auto;html=1;entryX=0;entryY=0.5;entryDx=0;entryDy=0;" edge="1" parent="1" source="ASgwzm6N97YV4ngfsRbp-28" target="ASgwzm6N97YV4ngfsRbp-38">
          <mxGeometry relative="1" as="geometry">
            <Array as="points">
              <mxPoint x="-726" y="151" />
              <mxPoint x="-726" y="435" />
            </Array>
          </mxGeometry>
        </mxCell>
      </root>
    </mxGraphModel>
  </diagram>
</mxfile>
